<?xml version="1.0" standalone="no"?>
<!DOCTYPE svg PUBLIC "-//W3C//DTD SVG 20010904//EN"
 "http://www.w3.org/TR/2001/REC-SVG-20010904/DTD/svg10.dtd">
<svg version="1.0" xmlns="http://www.w3.org/2000/svg"
 width="260.000000pt" height="260.000000pt" viewBox="0 0 260.000000 260.000000"
 preserveAspectRatio="xMidYMid meet">
<metadata>
Created by potrace 1.11, written by Peter Selinger 2001-2013
</metadata>
<g transform="translate(0.000000,260.000000) scale(0.100000,-0.100000)"
fill="#000000" stroke="none">
<path d="M13 2586 c-4 -6 -7 -1454 -4 -1547 1 -9 12 -20 27 -23 31 -8 209 -93
284 -136 190 -109 503 -390 516 -464 1 -6 16 -55 32 -108 16 -54 27 -100 24
-102 -2 -3 -21 11 -41 30 -104 101 -319 215 -496 263 -120 33 -151 38 -267 47
-61 4 -78 3 -79 -8 -4 -72 -3 -88 6 -89 6 0 46 -2 90 -4 44 -2 94 -6 110 -9
17 -4 46 -9 65 -12 91 -14 208 -54 325 -112 79 -39 232 -141 261 -174 21 -24
16 -21 -59 28 -101 67 -259 135 -392 168 -99 24 -124 27 -262 31 -150 4 -150
4 -145 -69 4 -45 4 -45 35 -39 43 9 272 9 322 0 22 -4 56 -10 75 -12 46 -7
181 -51 239 -78 63 -29 208 -115 216 -127 4 -6 -25 5 -63 25 -107 54 -255 98
-377 111 -121 14 -307 4 -390 -20 -5 -2 -21 -6 -35 -10 -26 -7 -28 -20 -21
-126 1 -13 145 -15 1239 -13 680 1 1262 2 1292 2 l55 1 -1 235 c-1 130 -3 237
-5 239 -2 1 -42 19 -89 39 -90 38 -232 82 -297 92 -21 3 -50 8 -63 11 -65 14
-268 11 -355 -6 -306 -60 -594 -268 -740 -534 -20 -36 -39 -66 -41 -66 -2 0 5
22 16 50 142 360 460 621 860 707 126 26 389 24 528 -6 57 -12 122 -28 143
-35 37 -13 39 -13 40 8 4 83 3 109 -1 116 -12 19 -208 38 -379 37 -318 -1
-573 -74 -787 -226 -78 -55 -203 -173 -249 -236 -17 -22 -32 -42 -35 -45 -12
-12 -66 -100 -98 -160 -48 -93 -59 -98 -19 -10 152 334 365 553 682 705 98 47
303 120 367 130 32 5 56 10 108 21 55 11 102 15 250 21 85 3 157 9 160 13 4 6
5 120 1 152 -2 15 -274 -9 -406 -36 -47 -10 -154 -38 -200 -54 -27 -9 -52 -17
-55 -17 -18 -3 -119 -46 -195 -84 -251 -125 -473 -323 -628 -561 -54 -84 -128
-223 -142 -268 -8 -26 -13 -25 -20 7 -9 40 -13 56 -34 136 -17 66 -19 99 -15
195 3 63 7 124 8 135 41 292 127 548 264 785 95 164 182 264 327 373 137 104
437 243 566 264 26 4 31 0 44 -31 19 -46 19 -51 -5 -53 -43 -3 -179 -43 -265
-78 -253 -102 -472 -273 -610 -475 -107 -157 -216 -412 -261 -612 -2 -10 -6
-28 -9 -40 -10 -40 -33 -181 -40 -238 -4 -40 -3 -51 4 -40 6 8 11 26 11 40 0
40 47 205 92 325 119 322 318 601 562 789 180 140 427 220 705 230 l54 2 123
-251 c68 -137 124 -248 124 -245 2 6 2 1097 1 1120 -1 13 -151 15 -1287 15
-707 0 -1288 -4 -1291 -9z"/>
</g>
</svg>
