<?xml version="1.0" encoding="utf-8"?>
<!-- Generator: Adobe Illustrator 25.2.3, SVG Export Plug-In . SVG Version: 6.00 Build 0)  -->
<svg version="1.1" id="Layer_1" xmlns="http://www.w3.org/2000/svg" xmlns:xlink="http://www.w3.org/1999/xlink" x="0px" y="0px"
	 viewBox="0 0 20 20" style="enable-background:new 0 0 20 20;" xml:space="preserve">
<style type="text/css">
	.st0{fill:#00856D;}
</style>
<path class="st0" d="M10,20c-2.6,0-5.2-1-7.1-2.9C-1,13.1-1,6.8,2.8,2.9C4.9,1,7.3,0,10,0c2.6,0,5.2,1,7.1,2.9
	C21,6.8,21,13.1,17.1,17C15.2,18.9,12.7,20,10,20z M10,1.7c-2.2,0-4.3,0.8-5.9,2.5c-3.3,3.2-3.3,8.5,0,11.7c1.5,1.5,3.7,2.5,5.9,2.5
	s4.3-0.8,5.9-2.5c3.2-3.2,3.2-8.5,0-11.7C14.3,2.5,12.3,1.7,10,1.7z"/>
<path class="st0" d="M8.9,13.6c-0.3,0-0.4-0.1-0.6-0.3L6.1,11c-0.3-0.3-0.3-0.8,0-1.2c0.3-0.3,0.9-0.3,1.2,0l1.5,1.6l4.3-5.2
	c0.3-0.3,0.9-0.4,1.2-0.1s0.4,0.8,0.1,1.2l-4.9,5.9C9.4,13.5,9.2,13.6,8.9,13.6z"/>
</svg>
