<?xml version="1.0" encoding="utf-8"?>
<!-- Generator: Adobe Illustrator 25.3.1, SVG Export Plug-In . SVG Version: 6.00 Build 0)  -->
<svg version="1.1" id="Layer_1" xmlns="http://www.w3.org/2000/svg" xmlns:xlink="http://www.w3.org/1999/xlink" x="0px" y="0px"
	 viewBox="0 0 20 25" style="enable-background:new 0 0 20 25;" xml:space="preserve">
<style type="text/css">
	.st0{fill:#0735A5;}
</style>
<path class="st0" d="M9.9,5.4c-2.5,0-4.4,2-4.4,4.4c0,2.4,2,4.4,4.4,4.4s4.4-2,4.4-4.4C14.3,7.4,12.3,5.4,9.9,5.4z M9.9,12.3
	c-1.3,0-2.4-1.1-2.4-2.4c0-1.3,1.1-2.4,2.4-2.4s2.4,1.1,2.4,2.4C12.3,11.2,11.2,12.3,9.9,12.3z"/>
<path class="st0" d="M9.9,0C4.4,0,0,4.4,0,9.9c0,5.2,8.3,12.7,9.2,13.6l0.7,0.6l0.7-0.6c0.9-0.8,9.2-8.4,9.2-13.6
	C19.8,4.4,15.3,0,9.9,0z M9.9,21.4C7.2,18.8,2,13.2,2,9.9C2,5.5,5.5,2,9.9,2s7.9,3.5,7.9,7.9C17.8,13.2,12.6,18.8,9.9,21.4z"/>
</svg>
