<svg width="20" height="25" viewBox="0 0 20 25" fill="none" xmlns="http://www.w3.org/2000/svg">
<path d="M9.9 5.40039C7.4 5.40039 5.5 7.40039 5.5 9.80039C5.5 12.2004 7.5 14.2004 9.9 14.2004C12.3 14.2004 14.3 12.2004 14.3 9.80039C14.3 7.40039 12.3 5.40039 9.9 5.40039ZM9.9 12.3004C8.6 12.3004 7.5 11.2004 7.5 9.90039C7.5 8.60039 8.6 7.50039 9.9 7.50039C11.2 7.50039 12.3 8.60039 12.3 9.90039C12.3 11.2004 11.2 12.3004 9.9 12.3004Z" fill="#EE6C2D"/>
<path d="M9.9 0C4.4 0 0 4.4 0 9.9C0 15.1 8.3 22.6 9.2 23.5L9.9 24.1L10.6 23.5C11.5 22.7 19.8 15.1 19.8 9.9C19.8 4.4 15.3 0 9.9 0ZM9.9 21.4C7.2 18.8 2 13.2 2 9.9C2 5.5 5.5 2 9.9 2C14.3 2 17.8 5.5 17.8 9.9C17.8 13.2 12.6 18.8 9.9 21.4Z" fill="#EE6C2D"/>
</svg>
