<svg width="24" height="24" viewBox="0 0 24 24" fill="none" xmlns="http://www.w3.org/2000/svg">
<path d="M6.70002 17.0748C6.90002 17.2748 7.20002 17.3748 7.40002 17.3748C7.60002 17.3748 7.90002 17.2748 8.10002 17.0748L16.8 8.3748C17.2 7.9748 17.2 7.3748 16.8 6.9748C16.4 6.5748 15.8 6.5748 15.4 6.9748L6.70002 15.6748C6.30002 16.0748 6.30002 16.7748 6.70002 17.0748Z" fill="#EE6C2D"/>
<path d="M22.3 1.775L22 1.575C19.9 -0.525 16.5 -0.525 14.4 1.575L12 4.075C10.9 5.175 10.3 6.775 10.5 8.375C10.5 8.975 11 9.375 11.6 9.275C12.1 9.275 12.6 8.775 12.5 8.175C12.4 7.175 12.8 6.175 13.5 5.475L15.9 2.975C17.2 1.675 19.3 1.675 20.7 2.975L21 3.275C22.3 4.575 22.3 6.675 21 8.075L18.5 10.575C17.8 11.275 16.8 11.575 15.8 11.575C15.3 11.575 14.8 11.975 14.7 12.475C14.6 12.975 15.1 13.475 15.6 13.575C15.8 13.575 15.9 13.575 16.1 13.575C17.5 13.575 18.9 12.975 19.9 11.975L22.4 9.475C24.4 7.275 24.4 3.875 22.3 1.775Z" fill="#EE6C2D"/>
<path d="M12.4 14.6752C11.9 14.6752 11.4 15.1752 11.5 15.7752C11.6 16.7752 11.2 17.7752 10.5 18.4752L8 20.8752C6.7 22.1752 4.6 22.1752 3.2 20.8752L3 20.5752C2.4 19.9752 2 19.0752 2 18.1752C2 17.2752 2.3 16.4752 3 15.7752L5.5 13.2752C6.2 12.5752 7.2 12.2752 8.2 12.2752C8.8 12.2752 9.2 11.8752 9.3 11.3752C9.3 10.7752 8.9 10.3752 8.4 10.2752C6.8 10.1752 5.3 10.6752 4.1 11.7752L1.6 14.2752C0.6 15.2752 0 16.6752 0 18.0752C0 19.6752 0.6 20.9752 1.6 21.9752L1.9 22.2752C2.9 23.2752 4.3 23.8752 5.7 23.8752C7.1 23.8752 8.4 23.3752 9.5 22.2752L12 19.7752C13.1 18.6752 13.7 17.0752 13.5 15.4752C13.4 14.9752 12.9 14.5752 12.4 14.6752Z" fill="#EE6C2D"/>
</svg>
