<svg width="23" height="23" viewBox="0 0 23 23" fill="none" xmlns="http://www.w3.org/2000/svg">
<path d="M21.9 5.1L17.1 0.3C17 0.1 16.7 0 16.4 0C16.1 0 15.9 0.1 15.7 0.3L0.6 15.4C0.4 15.6 0.3 15.8 0.3 16L0 21.2C0 21.5 0.1 21.8 0.3 22C0.5 22.2 0.7 22.3 1 22.3C1 22.3 1 22.3 1.1 22.3L6.2 22C6.4 22 6.7 21.9 6.8 21.7L21.9 6.5C22.1 6.3 22.2 6.1 22.2 5.8C22.2 5.5 22.1 5.3 21.9 5.1ZM5.6 19.9L3.3 20C3.1 19.4 2.7 18.9 2.1 18.7L2.2 16.5L14 4.9L15 5.9L3.8 17C3.4 17.4 3.4 18 3.8 18.4C4 18.6 4.3 18.7 4.5 18.7C4.8 18.7 5 18.6 5.2 18.4L16.4 7.3L17.4 8.3L5.6 19.9ZM18.8 6.8L15.4 3.4L16.4 2.4L19.8 5.8L18.8 6.8Z" fill="#EE6C2D"/>
</svg>
