<?xml version="1.0" encoding="utf-8"?>
<!-- Generator: Adobe Illustrator 25.3.1, SVG Export Plug-In . SVG Version: 6.00 Build 0)  -->
<svg version="1.1" id="Layer_1" xmlns="http://www.w3.org/2000/svg" xmlns:xlink="http://www.w3.org/1999/xlink" x="0px" y="0px"
	 viewBox="0 0 23 17" style="enable-background:new 0 0 23 17;" xml:space="preserve">
<style type="text/css">
	.st0{fill:#0735A5;}
</style>
<path class="st0" d="M20.5,0H2.4C1.1,0,0,1.1,0,2.4v11.9c0,1.3,1.1,2.4,2.4,2.4h18.2c1.3,0,2.4-1.1,2.4-2.4V2.4
	C22.9,1.1,21.8,0,20.5,0z M20.5,14.6H2.4c-0.1,0-0.2,0-0.3-0.1L8.3,9l2.8,2.5c0.1,0.1,0.2,0.1,0.3,0.1c0.1,0,0.2,0,0.3-0.1L14.6,9
	l6.2,5.5C20.7,14.6,20.6,14.6,20.5,14.6z M11.4,10.4L2.1,2.1C2.2,2,2.3,2,2.4,2h18.2c0.1,0,0.2,0,0.3,0.1L11.4,10.4z M2,3.4l5.5,4.9
	L2,13.2V3.4z M15.3,8.3l5.5-4.9v9.9L15.3,8.3z"/>
</svg>
