<?xml version="1.0" encoding="utf-8"?>
<!-- Generator: Adobe Illustrator 25.3.1, SVG Export Plug-In . SVG Version: 6.00 Build 0)  -->
<svg version="1.1" id="Layer_1" xmlns="http://www.w3.org/2000/svg" xmlns:xlink="http://www.w3.org/1999/xlink" x="0px" y="0px"
	 viewBox="0 0 23 23" style="enable-background:new 0 0 23 23;" xml:space="preserve">
<style type="text/css">
	.st0{fill:#0735A5;}
</style>
<path class="st0" d="M21.9,5.1l-4.8-4.8C17,0.1,16.7,0,16.4,0c-0.3,0-0.5,0.1-0.7,0.3L0.6,15.4c-0.2,0.2-0.3,0.4-0.3,0.6L0,21.2
	c0,0.3,0.1,0.6,0.3,0.8s0.4,0.3,0.7,0.3c0,0,0,0,0.1,0L6.2,22c0.2,0,0.5-0.1,0.6-0.3L21.9,6.5c0.2-0.2,0.3-0.4,0.3-0.7
	C22.2,5.5,22.1,5.3,21.9,5.1z M5.6,19.9L3.3,20c-0.2-0.6-0.6-1.1-1.2-1.3l0.1-2.2L14,4.9l1,1L3.8,17c-0.4,0.4-0.4,1,0,1.4
	c0.2,0.2,0.5,0.3,0.7,0.3c0.3,0,0.5-0.1,0.7-0.3L16.4,7.3l1,1L5.6,19.9z M18.8,6.8l-3.4-3.4l1-1l3.4,3.4L18.8,6.8z"/>
</svg>
