<svg width="18" height="18" viewBox="0 0 18 18" fill="none" xmlns="http://www.w3.org/2000/svg">
<path d="M17.31 8.2437H9.82662V0.756303C9.82662 0.302521 9.52426 0 9.07073 0C8.61719 0 8.31483 0.302521 8.31483 0.756303V8.2437H0.755894C0.302357 8.2437 0 8.54622 0 9C0 9.45378 0.302357 9.7563 0.755894 9.7563H8.23924V17.2437C8.23924 17.6975 8.5416 18 8.99514 18C9.44867 18 9.75103 17.6975 9.75103 17.2437V9.7563H17.2344C17.6879 9.7563 17.9903 9.45378 17.9903 9C18.0659 8.62185 17.6879 8.2437 17.31 8.2437Z" fill="white"/>
</svg>
