<svg width="15" height="15" viewBox="0 0 15 15" fill="none" xmlns="http://www.w3.org/2000/svg">
<path d="M14.3724 6.841H8.159V0.627615C8.159 0.251046 7.90795 0 7.53138 0C7.15481 0 6.90377 0.251046 6.90377 0.627615V6.841H0.627615C0.251046 6.841 0 7.09205 0 7.46862C0 7.84519 0.251046 8.09623 0.627615 8.09623H6.841V14.3096C6.841 14.6862 7.09205 14.9372 7.46862 14.9372C7.84519 14.9372 8.09623 14.6862 8.09623 14.3096V8.09623H14.3096C14.6862 8.09623 14.9372 7.84519 14.9372 7.46862C15 7.15481 14.6862 6.841 14.3724 6.841Z" fill="white"/>
</svg>
