<svg width="16" height="16" viewBox="0 0 16 16" fill="none" xmlns="http://www.w3.org/2000/svg">
<path d="M14.4118 15H1.58824C1.23529 15 1 14.7647 1 14.4118V1.58824C1 1.23529 1.23529 1 1.58824 1H7.06618C7.41912 1 7.65441 1.23529 7.65441 1.58824C7.65441 1.94118 7.41912 2.17647 7.06618 2.17647H2.17647V13.8235H13.8235V8.93382C13.8235 8.58088 14.0588 8.34559 14.4118 8.34559C14.7647 8.34559 15 8.58088 15 8.93382V14.4118C15 14.7647 14.7647 15 14.4118 15Z" fill="#EE6C2D" stroke="#EE6C2D"/>
<path d="M8.4709 7.52941C8.7062 7.76471 9.05914 7.76471 9.29443 7.52941L13.8238 3V5.05882C13.8238 5.41177 14.0591 5.64706 14.4121 5.64706C14.765 5.64706 15.0003 5.41177 15.0003 5.05882V1.58824C15.0003 1.23529 14.765 1 14.4121 1H10.9415C10.5886 1 10.3533 1.23529 10.3533 1.58824C10.3533 1.94118 10.5886 2.17647 10.9415 2.17647H13.0003L8.4709 6.70588C8.23561 6.94118 8.23561 7.29412 8.4709 7.52941Z" fill="#EE6C2D" stroke="#EE6C2D"/>
</svg>
