<svg width="24" height="24" viewBox="0 0 24 24" fill="none" xmlns="http://www.w3.org/2000/svg">
<path d="M18.3036 23.2C13.8036 23.2 9.20358 21.1 5.70358 17.6L5.60358 17.5C1.90358 13.8 -0.0964232 9.1 0.00357685 4.6V4.3L0.203577 4C0.503577 3.6 0.803577 3.2 1.20358 2.9C2.40358 1.7 3.80358 0.8 5.40358 0.1C5.60358 0 5.80358 0 6.10358 0C6.60358 0 7.90358 0.3 8.20358 1.1C8.70358 2.6 9.40358 4.6 9.90358 6.5C10.0036 7 9.90358 8.3 9.10358 8.8L7.40358 9.9C7.40358 9.9 7.40358 10.2 7.60358 10.5C8.30358 11.4 9.10358 12.4 10.0036 13.3C10.9036 14.2 11.8036 15 12.7036 15.6C12.9036 15.7 13.1036 15.8 13.3036 15.8L13.9036 14.9L14.5036 14C15.0036 13.2 16.2036 13.2 16.4036 13.2C16.5036 13.2 16.7036 13.2 16.8036 13.2C19.1036 13.7 20.5036 14.2 22.3036 15C23.1036 15.4 23.6036 16.8 23.2036 17.7C22.6036 19.3 21.7036 20.7 20.4036 21.9C20.1036 22.2 19.7036 22.6 19.3036 22.9L19.0036 23.2H18.3036ZM2.00358 5C2.00358 8.9 3.90358 13 7.00358 16.2L7.10358 16.3C10.3036 19.5 14.3036 21.3 18.2036 21.3C18.4036 21.1 18.7036 20.9 18.9036 20.7C19.9036 19.7 20.7036 18.5 21.2036 17.2C21.2036 17.2 21.1036 17.1 21.1036 17C19.6036 16.3 18.3036 15.9 16.2036 15.4C16.1036 15.4 16.0036 15.4 16.0036 15.4L15.0036 17C14.4036 18 12.7036 18.2 11.5036 17.3C10.5036 16.6 9.50358 15.7 8.50358 14.8C7.50358 13.8 6.70358 12.8 5.90358 11.8C5.50358 11 5.30358 10.2 5.40358 9.5C5.50358 8.9 5.80358 8.5 6.30358 8.2L7.90358 7.2C7.90358 7.1 7.90358 7 7.90358 6.9C7.50358 5.3 6.90358 3.5 6.30358 2.1C6.30358 2 6.20358 2 6.10358 2C4.80358 2.5 3.60358 3.3 2.60358 4.3C2.40358 4.5 2.20358 4.7 2.00358 5Z" fill="#EE6C2D"/>
</svg>
