<svg width="17" height="16" viewBox="0 0 17 16" fill="none" xmlns="http://www.w3.org/2000/svg">
<path d="M1.69175 1.15244C0.825243 1.9074 0.165049 2.91402 0.0412621 4.0884C0 4.34005 0 4.54977 0 4.80142C0.0412621 6.14357 0.412621 7.3599 0.990291 8.45039C1.81553 9.87643 3.01214 11.1766 4.37379 12.4768C5.61165 13.6512 7.01456 14.8256 8.5 16C9.98544 14.8256 11.3471 13.6512 12.6262 12.4768C13.9879 11.1766 15.1845 9.91837 16.0097 8.45039C16.6286 7.3599 17 6.18551 17 4.80142C17 4.54977 17 4.34005 16.9587 4.13034C16.8349 2.95596 16.1748 1.94935 15.3083 1.19438C14.3592 0.35554 13.1626 -0.18971 11.801 0.0619439C10.5631 0.271655 9.44903 1.19438 8.5 2.28488C7.50971 1.19438 6.43689 0.271655 5.19903 0.0619439C3.83738 -0.18971 2.59951 0.35554 1.69175 1.15244Z" fill="#84898E"/>
</svg>
