<?xml version="1.0" encoding="utf-8"?>
<!-- Generator: Adobe Illustrator 25.3.1, SVG Export Plug-In . SVG Version: 6.00 Build 0)  -->
<svg version="1.1" id="Layer_1" xmlns="http://www.w3.org/2000/svg" xmlns:xlink="http://www.w3.org/1999/xlink" x="0px" y="0px"
	 viewBox="0 0 25 17" style="enable-background:new 0 0 25 17;" xml:space="preserve">
<style type="text/css">
	.st0{fill:#0735A5;}
</style>
<path class="st0" d="M24.5,8.8v-3c0-0.1-0.1-0.2-0.1-0.3C24.2,5.3,24,5.1,23.8,5L12.6,0.1c-0.3-0.1-0.5-0.1-0.8,0L0.6,5
	C0.2,5.1,0,5.5,0,5.9c0,0.4,0.2,0.8,0.6,0.9l2.4,1v5c0,0.3,0.2,0.6,0.4,0.8c2.7,1.8,5.7,2.7,8.8,2.7c3,0,6.1-0.9,8.8-2.7
	c0.3-0.2,0.4-0.5,0.4-0.8v-5l2-0.9v1.9C23.2,9,23,9.3,23,9.7v3.5c0,0.6,0.4,1,1,1s1-0.4,1-1V9.7C25,9.3,24.7,9,24.5,8.8z M12.2,2.1
	l8.7,3.8l-8.7,3.8L3.5,5.9L12.2,2.1z M19.4,12.3c-4.5,2.8-9.9,2.8-14.4,0V8.7l6.8,3c0.1,0.1,0.3,0.1,0.4,0.1c0.1,0,0.3,0,0.4-0.1
	l6.8-3V12.3z"/>
</svg>
