<?xml version="1.0" encoding="utf-8"?>
<!-- Generator: Adobe Illustrator 25.3.1, SVG Export Plug-In . SVG Version: 6.00 Build 0)  -->
<svg version="1.1" id="Layer_1" xmlns="http://www.w3.org/2000/svg" xmlns:xlink="http://www.w3.org/1999/xlink" x="0px" y="0px"
	 viewBox="0 0 23 23" style="enable-background:new 0 0 23 23;" xml:space="preserve">
<style type="text/css">
	.st0{fill:#0735A5;}
</style>
<path class="st0" d="M14.9,10.2c-0.2-0.2-0.4-0.2-0.6,0L10.4,14l-1.7-1.7c-0.2-0.2-0.4-0.2-0.6,0l-1,1c-0.2,0.2-0.2,0.4,0,0.6l3,3
	c0.2,0.2,0.4,0.2,0.6,0l5.2-5.2c0.2-0.2,0.2-0.4,0-0.6L14.9,10.2L14.9,10.2z M17.8,3.1h-3.5c0-1.5-1.3-2.8-2.8-2.8S8.7,1.5,8.7,3.1
	H5.2C4,3.1,3.1,4,3.1,5.2v15.4c0,1.2,0.9,2.1,2.1,2.1h12.6c1.2,0,2.1-0.9,2.1-2.1V5.2C19.9,4,19,3.1,17.8,3.1z M11.5,2.4
	c0.4,0,0.7,0.3,0.7,0.7s-0.3,0.7-0.7,0.7s-0.7-0.3-0.7-0.7S11.1,2.4,11.5,2.4z M17.8,20.3c0,0.2-0.2,0.4-0.4,0.4H5.5
	c-0.2,0-0.4-0.2-0.4-0.4V5.5c0-0.2,0.2-0.4,0.4-0.4h1.8v1.4C7.3,7,7.6,7.3,8,7.3h7c0.4,0,0.7-0.3,0.7-0.7V5.2h1.8
	c0.2,0,0.4,0.2,0.4,0.4V20.3z"/>
</svg>
