<?xml version="1.0" encoding="utf-8"?>
<!-- Generator: Adobe Illustrator 25.3.1, SVG Export Plug-In . SVG Version: 6.00 Build 0)  -->
<svg version="1.1" id="Layer_1" focusable="false" xmlns="http://www.w3.org/2000/svg" xmlns:xlink="http://www.w3.org/1999/xlink"
	 x="0px" y="0px" viewBox="0 0 288 512" style="enable-background:new 0 0 288 512;" xml:space="preserve">
<style type="text/css">
	.st0{opacity:0.6;}
</style>
<path class="st0" d="M211.9,242.1L95.6,208.9c-15.8-4.5-28.6-17.2-31.1-33.5C60.6,150,80.3,128,105,128h73.8
	c15.9,0,31.5,5,44.4,14.1c6.4,4.5,15,3.8,20.5-1.7l22.9-22.9c6.8-6.8,6.1-18.2-1.5-24.1C240.4,74.3,210.4,64,178.8,64H176V16
	c0-8.8-7.2-16-16-16h-32c-8.8,0-16,7.2-16,16v48h-2.5C60.3,64,14.9,95.8,3.1,143.6c-13.9,56.2,20.2,111.2,73,126.3l116.3,33.2
	c15.8,4.5,28.6,17.2,31.1,33.5C227.4,362,207.7,384,183,384h-73.8c-15.9,0-31.5-5-44.4-14.1c-6.4-4.5-15-3.8-20.5,1.7l-22.9,22.9
	c-6.8,6.8-6.1,18.2,1.5,24.1c24.6,19.1,54.6,29.4,86.3,29.4h2.8v48c0,8.8,7.2,16,16,16h32c8.8,0,16-7.2,16-16v-48h2.5
	c49.2,0,94.6-31.8,106.4-79.6C298.8,312.2,264.7,257.2,211.9,242.1L211.9,242.1z"/>
</svg>
