<svg width="25" height="17" viewBox="0 0 25 17" fill="none" xmlns="http://www.w3.org/2000/svg">
<path d="M24.5 8.80039V5.80039C24.5 5.70039 24.4 5.60039 24.4 5.50039C24.2 5.30039 24 5.10039 23.8 5.00039L12.6 0.100391C12.3 0.000390626 12.1 0.000390626 11.8 0.100391L0.6 5.00039C0.2 5.10039 0 5.50039 0 5.90039C0 6.30039 0.2 6.70039 0.6 6.80039L3 7.80039V12.8004C3 13.1004 3.2 13.4004 3.4 13.6004C6.1 15.4004 9.1 16.3004 12.2 16.3004C15.2 16.3004 18.3 15.4004 21 13.6004C21.3 13.4004 21.4 13.1004 21.4 12.8004V7.80039L23.4 6.90039V8.80039C23.2 9.00039 23 9.30039 23 9.70039V13.2004C23 13.8004 23.4 14.2004 24 14.2004C24.6 14.2004 25 13.8004 25 13.2004V9.70039C25 9.30039 24.7 9.00039 24.5 8.80039ZM12.2 2.10039L20.9 5.90039L12.2 9.70039L3.5 5.90039L12.2 2.10039ZM19.4 12.3004C14.9 15.1004 9.5 15.1004 5 12.3004V8.70039L11.8 11.7004C11.9 11.8004 12.1 11.8004 12.2 11.8004C12.3 11.8004 12.5 11.8004 12.6 11.7004L19.4 8.70039V12.3004Z" fill="#802755"/>
</svg>
