<?xml version="1.0" encoding="utf-8"?>
<!-- Generator: Adobe Illustrator 25.2.3, SVG Export Plug-In . SVG Version: 6.00 Build 0)  -->
<svg version="1.1" id="Layer_1" xmlns="http://www.w3.org/2000/svg" xmlns:xlink="http://www.w3.org/1999/xlink" x="0px" y="0px"
	 viewBox="0 0 20 20" style="enable-background:new 0 0 20 20;" xml:space="preserve">
<style type="text/css">
	.st0{fill:#989EA3;}
</style>
<path class="st0" d="M10,20c-2.6,0-5.2-1-7.1-2.9c-3.9-4-3.9-10.3-0.1-14.2C4.9,1,7.3,0,10,0c2.6,0,5.2,1,7.1,2.9
	C21,6.8,21,13.1,17.1,17C15.2,18.9,12.7,20,10,20z M10,1.7c-2.2,0-4.3,0.8-5.9,2.5c-3.3,3.2-3.3,8.5,0,11.7c1.5,1.5,3.7,2.5,5.9,2.5
	c2.2,0,4.3-0.8,5.9-2.5c3.2-3.2,3.2-8.5,0-11.7C14.3,2.5,12.3,1.7,10,1.7z"/>
</svg>
