<svg width="23" height="17" viewBox="0 0 23 17" fill="none" xmlns="http://www.w3.org/2000/svg">
<path d="M20.5 0H2.4C1.1 0 0 1.1 0 2.4V14.3C0 15.6 1.1 16.7 2.4 16.7H20.6C21.9 16.7 23 15.6 23 14.3V2.4C22.9 1.1 21.8 0 20.5 0ZM20.5 14.6H2.4C2.3 14.6 2.2 14.6 2.1 14.5L8.3 9L11.1 11.5C11.2 11.6 11.3 11.6 11.4 11.6C11.5 11.6 11.6 11.6 11.7 11.5L14.6 9L20.8 14.5C20.7 14.6 20.6 14.6 20.5 14.6ZM11.4 10.4L2.1 2.1C2.2 2 2.3 2 2.4 2H20.6C20.7 2 20.8 2 20.9 2.1L11.4 10.4ZM2 3.4L7.5 8.3L2 13.2V3.4ZM15.3 8.3L20.8 3.4V13.3L15.3 8.3Z" fill="#EE6C2D"/>
</svg>
