<svg width="17" height="23" viewBox="0 0 17 23" fill="none" xmlns="http://www.w3.org/2000/svg">
<path d="M16.0811 0.918919H13.2324C12.8649 0.367568 12.3135 0 11.5784 0H5.42162C4.68649 0 4.13514 0.367568 3.76757 0.918919H0.918919C0.367568 0.918919 0 1.28649 0 1.83784V21.3189C0 21.8703 0.367568 22.2378 0.918919 22.2378H16.0811C16.6324 22.2378 17 21.8703 17 21.3189V1.83784C17 1.28649 16.6324 0.918919 16.0811 0.918919ZM15.1622 20.4H1.83784V2.75676H3.58378C3.95135 3.4 4.59459 3.85946 5.42162 3.85946H11.6703C12.4973 3.85946 13.1405 3.4 13.4162 2.75676H15.1622V20.4Z" fill="#137CB4"/>
<path d="M5.32965 6.9834H4.31883C4.04316 6.9834 3.85938 7.16718 3.85938 7.44286V8.54556C3.85938 8.82124 4.04316 9.00502 4.31883 9.00502H5.42154C5.69721 9.00502 5.881 8.82124 5.881 8.54556V7.44286C5.78911 7.25907 5.60532 6.9834 5.32965 6.9834Z" fill="#137CB4"/>
<path d="M13.1406 7.53516H7.16759C6.89191 7.53516 6.70813 7.71894 6.70813 7.99462C6.70813 8.27029 6.89191 8.45408 7.16759 8.45408H13.0487C13.3243 8.45408 13.5081 8.27029 13.5081 7.99462C13.6 7.71894 13.3243 7.53516 13.1406 7.53516Z" fill="#137CB4"/>
<path d="M5.32965 13.3242H4.31883C4.04316 13.3242 3.85938 13.508 3.85938 13.7837V14.8864C3.85938 15.1621 4.04316 15.3458 4.31883 15.3458H5.42154C5.69721 15.3458 5.881 15.1621 5.881 14.8864V13.7837C5.78911 13.508 5.60532 13.3242 5.32965 13.3242Z" fill="#137CB4"/>
<path d="M13.1406 13.7842H7.16759C6.89191 13.7842 6.70813 13.968 6.70813 14.2436C6.70813 14.5193 6.89191 14.7031 7.16759 14.7031H13.0487C13.3243 14.7031 13.5081 14.5193 13.5081 14.2436C13.6 14.0599 13.3243 13.7842 13.1406 13.7842Z" fill="#137CB4"/>
<path d="M5.32965 10.2002H4.31883C4.04316 10.2002 3.85938 10.384 3.85938 10.6597V11.7624C3.85938 12.038 4.04316 12.2218 4.31883 12.2218H5.42154C5.69721 12.2218 5.881 12.038 5.881 11.7624V10.6597C5.78911 10.384 5.60532 10.2002 5.32965 10.2002Z" fill="#137CB4"/>
<path d="M13.1406 10.6592H7.16759C6.89191 10.6592 6.70813 10.843 6.70813 11.1186C6.70813 11.3943 6.89191 11.5781 7.16759 11.5781H13.0487C13.3243 11.5781 13.5081 11.3943 13.5081 11.1186C13.6 10.843 13.3243 10.6592 13.1406 10.6592Z" fill="#137CB4"/>
</svg>
