<svg width="41" height="41" viewBox="0 0 41 41" fill="none" xmlns="http://www.w3.org/2000/svg">
<path d="M26.2152 29.7639C32.5591 27.1484 38.8506 28.8223 41.0002 29.5546V27.3577C39.1127 26.9915 32.2446 25.893 25.9531 28.5085C17.879 31.8562 15.3625 39.8595 15.3625 39.8595C15.3625 39.8595 17.0926 31.647 25.7958 26.9392C32.5067 23.3299 39.1127 23.4868 41.0002 23.6437V20.9759C37.9593 20.9759 30.6193 21.499 24.3802 25.8407C17.1975 30.8101 15.1003 37.6626 15.1003 37.6626L14.1042 33.8963C14.1042 33.8963 13.4226 24.8991 19.3471 15.8497C23.8035 8.99716 33.0834 7.11404 33.0834 7.11404L33.7126 8.47407C33.7126 8.47407 24.4327 9.72949 19.2946 17.4712C15.31 23.4868 14.3663 30.8624 14.3663 33.6348C14.6285 30.967 16.3062 20.819 24.8521 13.9142C30.0425 9.62487 37.068 10.0957 37.068 10.0957L40.9477 18.0466V0H0.0532227V24.7422C8.86127 28.0377 13.108 34.1055 13.108 34.1055C13.108 34.1055 14.1566 37.5579 14.2614 38.081C14.2614 38.081 9.28071 32.5886 0.525083 32.3793C0.367796 32.3793 0.210509 32.3793 0.0532227 32.3793V33.9486C9.43799 33.6871 14.7333 39.9118 14.7333 39.9118C14.7333 39.9118 8.65156 34.3671 0.0532227 35.3086L0.105652 37.0348C0.315367 36.9825 0.472654 36.9825 0.734798 36.9302C7.96998 36.041 12.741 39.1795 14.7333 40.9057H15.7295C16.3062 38.918 18.613 32.9024 26.2152 29.7639Z" fill="#F2F2F2"/>
</svg>
