<?xml version="1.0" encoding="utf-8"?>
<svg xmlns="http://www.w3.org/2000/svg" width="8.65in" height="4.93in" viewBox="0 0 623 354.78">
  <defs>
    <style>
      .cls-1 {
        fill: #fff;
      }

      .cls-2 {
        fill: #f37021;
      }
    </style>
  </defs>
  <title>FPCB_30th_logo_RGB_color</title>
  <g id="Layer_2" data-name="Layer 2">
    <g>
      <polygon class="cls-1" points="293.61 54.6 293.61 48.45 266.55 48.45 266.55 107.92 273.18 107.92 273.18 78.42 292.98 78.42 292.98 72.27 273.18 72.27 273.18 54.6 293.61 54.6"/>
      <polygon class="cls-1" points="319.74 48.45 313.12 48.45 313.12 107.92 336.14 107.92 336.14 101.77 319.74 101.77 319.74 48.45"/>
      <path class="cls-1" d="M409.87,77.83a30.77,30.77,0,1,0,31,30.84A31,31,0,0,0,409.87,77.83Zm0,55.38a24.62,24.62,0,1,1,24.38-24.62A24.6,24.6,0,0,1,409.87,133.21Z" transform="translate(-30.23 -30.41)"/>
      <path class="cls-1" d="M459,78.85v59.49h6.63V112.22h1.66l18,26.12h8.12l-18.93-26.67c9.14-.79,14.91-7.26,14.91-16.41,0-13.41-10.5-16.41-21.78-16.41Zm23.75,16.89c0,9.23-7.57,10.65-15.07,10.65h-2V85h2C475.54,85,482.72,86,482.72,95.74Z" transform="translate(-30.23 -30.41)"/>
      <rect class="cls-1" x="479.54" y="48.45" width="6.63" height="59.48"/>
      <path class="cls-1" d="M572.22,130.84a28.65,28.65,0,0,0,9.7-22.17c0-8.83-3.07-16.8-9.86-22.64-7-6-14.27-7.17-23.18-7.17H537.67v59.48h11.05C558,138.34,565.13,137.15,572.22,130.84ZM544.3,85h4.81c7,0,13,.95,18.46,5.76a24.32,24.32,0,0,1,.32,35.26c-5.44,5.12-11.53,6.15-18.78,6.15H544.3Z" transform="translate(-30.23 -30.41)"/>
      <path class="cls-1" d="M600.77,138.34,608,121.45h25.41l7,16.89h7.33L621,76l-27.45,62.32Zm20-46.86,9.94,23.82H610.63Z" transform="translate(-30.23 -30.41)"/>
      <path class="cls-1" d="M296.78,216.15h6.63v-26h4.8c5,0,10.11-.63,14.13-3.94A16.73,16.73,0,0,0,328,173.4a16.35,16.35,0,0,0-6.71-13.56c-4.34-3-9.62-3.17-14.75-3.17h-9.78Zm6.63-53.32h2.44c7.73,0,15.54.71,15.54,10.41,0,8.52-6.22,10.73-13.56,10.73h-4.42Z" transform="translate(-30.23 -30.41)"/>
      <path class="cls-1" d="M384.44,216.15l-18.93-26.66c9.14-.79,14.91-7.26,14.91-16.41,0-13.41-10.5-16.41-21.78-16.41h-8.58v59.48h6.61V190h1.66l18,26.11Zm-27.77-31.94V162.83h2c8,0,15.15.95,15.15,10.73,0,9.22-7.57,10.65-15.07,10.65Z" transform="translate(-30.23 -30.41)"/>
      <polygon class="cls-1" points="407.09 132.41 407.09 126.26 376.25 126.26 376.25 185.74 407.09 185.74 407.09 179.58 382.87 179.58 382.87 156.24 406.38 156.24 406.38 150.09 382.87 150.09 382.87 132.41 407.09 132.41"/>
      <path class="cls-1" d="M487,159.84c-4.34-3-9.62-3.17-14.75-3.17h-9.78v59.48h6.62v-26h4.81c5,0,10.1-.63,14.12-3.94a16.7,16.7,0,0,0,5.68-12.78A16.37,16.37,0,0,0,487,159.84ZM473.48,184h-4.41V162.83h2.45c7.73,0,15.54.71,15.54,10.41C487.06,181.76,480.83,184,473.48,184Z" transform="translate(-30.23 -30.41)"/>
      <path class="cls-1" d="M511.48,216.15l7.18-16.88h25.4l7,16.88h7.33l-26.75-62.31-27.44,62.31Zm20-46.85,9.94,23.82H521.34Z" transform="translate(-30.23 -30.41)"/>
      <rect class="cls-1" x="547.44" y="126.26" width="6.62" height="59.48"/>
      <path class="cls-1" d="M653.23,186.5c0-8.84-3.08-16.81-9.86-22.64-7-6-14.27-7.18-23.19-7.18H609v59.47h11c9.31,0,16.41-1.19,23.51-7.49A28.67,28.67,0,0,0,653.23,186.5Zm-14,17.35C633.75,209,627.68,210,620.41,210H615.6V162.83h4.81c7,0,13,.95,18.47,5.76a24.34,24.34,0,0,1,.32,35.26Z" transform="translate(-30.23 -30.41)"/>
      <path class="cls-1" d="M298.19,262.77a11.47,11.47,0,0,0,6.61,2.08,12.87,12.87,0,0,0,7.55-2.45v-3.54A9.37,9.37,0,0,1,305,262.4a9.13,9.13,0,0,1-7.56-4,9,9,0,0,1-1.53-5.3,9.12,9.12,0,0,1,2.57-6.61,9,9,0,0,1,6.39-2.72,9.62,9.62,0,0,1,7.46,3.41v-3.47a12.6,12.6,0,0,0-7.37-2.41,11.58,11.58,0,0,0-8.33,3.28,11.9,11.9,0,0,0,1.54,18.17Z" transform="translate(-30.23 -30.41)"/>
      <path class="cls-1" d="M319.62,244.76a11.6,11.6,0,0,0,0,16.63,12.11,12.11,0,0,0,16.95,0,11.67,11.67,0,0,0,0-16.63,12.21,12.21,0,0,0-16.95,0Zm17.64,8.33a9.18,9.18,0,1,1-18.36,0,9.27,9.27,0,0,1,2.69-6.58,9.17,9.17,0,0,1,13,0A9.21,9.21,0,0,1,337.26,253.09Z" transform="translate(-30.23 -30.41)"/>
      <polygon class="cls-1" points="314.43 211.43 314.43 233.84 325.56 233.84 325.56 231.29 317.09 231.29 317.09 211.43 314.43 211.43"/>
      <polygon class="cls-1" points="328.97 211.43 328.97 233.84 340.1 233.84 340.1 231.29 331.64 231.29 331.64 211.43 328.97 211.43"/>
      <polygon class="cls-1" points="355.33 213.88 355.33 211.43 343.52 211.43 343.52 233.84 355.33 233.84 355.33 231.36 346.18 231.36 346.18 222.77 355.33 222.77 355.33 220.3 346.18 220.3 346.18 213.88 355.33 213.88"/>
      <path class="cls-1" d="M401,243.76a7.86,7.86,0,0,1,7.2,4.07l2.23-1.79c-2.11-3.16-5.27-4.7-9.52-4.7a11.13,11.13,0,0,0-8,2.92,11.82,11.82,0,0,0-3.61,9,11.2,11.2,0,0,0,5.76,10.24,11.79,11.79,0,0,0,5.65,1.33c6.83,0,11.18-4.27,11.18-11.41v-.76h-9.24v2.39H409a7.74,7.74,0,0,1-8.08,7.36c-5.11,0-8.78-3.79-8.78-9.15C392.17,247.61,395.74,243.76,401,243.76Z" transform="translate(-30.23 -30.41)"/>
      <polygon class="cls-1" points="397.67 213.88 397.67 211.43 385.85 211.43 385.85 233.84 397.67 233.84 397.67 231.36 388.52 231.36 388.52 222.77 397.67 222.77 397.67 220.3 388.52 220.3 388.52 213.88 397.67 213.88"/>
      <polygon class="cls-1" points="423.74 213.88 423.74 211.43 411.93 211.43 411.93 233.84 414.59 233.84 414.59 222.77 423.74 222.77 423.74 220.3 414.59 220.3 414.59 213.88 423.74 213.88"/>
      <path class="cls-1" d="M460.78,244.76a11.6,11.6,0,0,0,0,16.63,12.11,12.11,0,0,0,17,0,11.67,11.67,0,0,0,0-16.63,12.21,12.21,0,0,0-17,0Zm17.64,8.33a9.18,9.18,0,1,1-18.36,0,9.23,9.23,0,0,1,2.69-6.58,9.16,9.16,0,0,1,13,0A9.17,9.17,0,0,1,478.42,253.09Z" transform="translate(-30.23 -30.41)"/>
      <path class="cls-1" d="M488.42,255.79V241.85h-2.7v13.94c0,6,2.85,9.06,8.69,9.06s8.67-3,8.67-9.06V241.85h-2.69v13.94c0,4.48-1.82,6.58-6,6.58S488.42,260.27,488.42,255.79Z" transform="translate(-30.23 -30.41)"/>
      <polygon class="cls-1" points="478.41 210.55 478.41 233.84 480.94 233.84 480.94 217.01 497.32 234.71 497.32 211.43 494.79 211.43 494.79 228.45 478.41 210.55"/>
      <path class="cls-1" d="M547.61,243.94c-2.72-2.09-6-2.09-10.14-2.09h-4.3v22.4h5.27c3.63,0,6.58-.1,9.17-2.1s3.92-5.07,3.92-9.09S550.18,245.92,547.61,243.94Zm-1.69,16.2c-1.88,1.57-4.54,1.6-8.36,1.6h-1.7V244.32h1.7c3.85,0,6.51.06,8.36,1.63s2.82,3.92,2.82,7.08S547.74,258.64,545.92,260.14Z" transform="translate(-30.23 -30.41)"/>
      <path class="cls-1" d="M552.49,264.25h2.88l2.92-6.87H567l2.91,6.87h2.89L562.64,241Zm6.58-9.15,3.57-8.24,3.57,8.24Z" transform="translate(-30.23 -30.41)"/>
      <polygon class="cls-1" points="550.04 233.83 550.04 213.97 556.33 213.97 556.33 211.43 541.01 211.43 541.01 213.97 547.34 213.97 547.34 233.83 550.04 233.83"/>
      <rect class="cls-1" x="559.6" y="211.43" width="2.66" height="22.4"/>
      <path class="cls-1" d="M609.1,241.34a12.19,12.19,0,0,0-8.47,3.42,11.63,11.63,0,0,0,0,16.63,12.12,12.12,0,0,0,17,0,11.67,11.67,0,0,0,0-16.63A12.24,12.24,0,0,0,609.1,241.34Zm6.48,18.27a9.18,9.18,0,0,1-15.66-6.52,9.27,9.27,0,0,1,2.69-6.58,9.16,9.16,0,0,1,13,0,9.16,9.16,0,0,1,2.69,6.58A9,9,0,0,1,615.58,259.61Z" transform="translate(-30.23 -30.41)"/>
      <polygon class="cls-1" points="611.84 228.45 595.45 210.55 595.45 233.84 597.99 233.84 597.99 217.01 614.37 234.71 614.37 211.43 611.84 211.43 611.84 228.45"/>
      <path class="cls-1" d="M303,55.06a4.68,4.68,0,0,1-4.85-4.75L295,51a7.81,7.81,0,0,0,7.74,7,7.71,7.71,0,0,0,8-7.8c0-4.18-2.66-6.15-6.21-7.54l-1.79-.7c-1.56-.59-3.49-1.62-3.49-3.58,0-2.19,2.2-3.56,4.18-3.56a4.28,4.28,0,0,1,4,2.36l2.5-1.49a7.16,7.16,0,0,0-6.45-3.79c-3.78,0-7.37,2.43-7.37,6.48,0,3.48,2.59,5.11,5.45,6.34l1.72.73c2.16.9,4.32,2.06,4.32,4.75A4.7,4.7,0,0,1,303,55.06Z" transform="translate(-30.23 -30.41)"/>
      <polygon class="cls-1" points="294.13 27.04 297.25 27.04 297.25 4.86 303.2 4.86 303.2 2 288.19 2 288.19 4.86 294.13 4.86 294.13 27.04"/>
      <path class="cls-1" d="M345.4,51.17h11.49l2.86,6.28h3.35l-12-26.1-12,26.1h3.36Zm5.75-13,4.45,10.13h-8.9Z" transform="translate(-30.23 -30.41)"/>
      <polygon class="cls-1" points="346.4 8.38 365.19 28.07 365.19 2 362.08 2 362.08 20.5 343.28 0.81 343.28 27.04 346.4 27.04 346.4 8.38"/>
      <polygon class="cls-1" points="388.99 24.18 381.38 24.18 381.38 2 378.26 2 378.26 27.04 388.99 27.04 388.99 24.18"/>
      <polygon class="cls-1" points="413.12 24.18 402.79 24.18 402.79 14.72 412.82 14.72 412.82 11.86 402.79 11.86 402.79 4.86 413.12 4.86 413.12 2 399.67 2 399.67 27.04 413.12 27.04 413.12 24.18"/>
      <polygon class="cls-1" points="431.17 27.04 434.29 27.04 434.29 16.15 442.45 2 438.87 2 432.73 12.69 426.58 2 423 2 431.17 16.15 431.17 27.04"/>
      <path class="cls-1" d="M507.33,58c7,0,11.85-5.28,11.85-12.15v-1h-9.92v2.86h6.47c-.13,4.08-4.31,7.43-8.2,7.43-5.41,0-9.73-5-9.73-10.22a9.88,9.88,0,0,1,17.87-6.08l2.19-2.09A13,13,0,0,0,494.68,45,13,13,0,0,0,507.33,58Z" transform="translate(-30.23 -30.41)"/>
      <path class="cls-1" d="M528.67,58a1.93,1.93,0,0,0,0-3.85,1.93,1.93,0,1,0,0,3.85Z" transform="translate(-30.23 -30.41)"/>
      <polygon class="cls-1" points="530.77 27.04 533.88 27.04 533.88 4.86 539.83 4.86 539.83 2 524.82 2 524.82 4.86 530.77 4.86 530.77 27.04"/>
      <path class="cls-1" d="M582,51.17h11.49l2.85,6.28h3.35l-12-26.1-11.95,26.1h3.35Zm5.74-13,4.45,10.13h-8.9Z" transform="translate(-30.23 -30.41)"/>
      <polygon class="cls-1" points="581.18 27.04 584.3 27.04 584.3 4.86 590.25 4.86 590.25 2 575.24 2 575.24 4.86 581.18 4.86 581.18 27.04"/>
      <polygon class="cls-1" points="614.77 24.18 604.45 24.18 604.45 14.72 614.47 14.72 614.47 11.86 604.45 11.86 604.45 4.86 614.77 4.86 614.77 2 601.32 2 601.32 27.04 614.77 27.04 614.77 24.18"/>
      <rect class="cls-1" y="262" width="617.41" height="2.51"/>
      <g>
        <path class="cls-2" d="M41.36,251.49a79.65,79.65,0,0,0-9.85,2.45l.17,11.87,83.67.06C105.34,258.21,76,245.24,41.36,251.49Z" transform="translate(-30.23 -30.41)"/>
        <path class="cls-2" d="M181.69,213.22c-38.85,13.58-54.83,42.51-59.37,52.59H267.08v-43C257.19,217.73,218.87,200.24,181.69,213.22Z" transform="translate(-30.23 -30.41)"/>
        <path class="cls-2" d="M204.36,94.23a119.25,119.25,0,0,1,40.3-5.63l22.42,45.83v-104H31.69V172.82c50.72,18.86,74.93,53.89,74.93,53.89s6,20,6.69,22.87c0,0-28.53-31.49-78.81-32.93l-2.81,0,0,9.15c54-1.44,84.47,34.27,84.47,34.27s-34.94-31.9-84.46-26.37l.23,9.91c1.24-.2,2.23-.43,3.5-.58,41.71-5.13,69.16,13,80.6,22.8h5.73c3.3-11.16,16.78-46,60.42-64,36.59-15.13,72.49-5.44,84.87-1.18V187.8c-10.85-2.18-50.48-8.5-86.48,6.52-46.42,19.38-61,65.51-61,65.51s10-47.41,59.93-74.34c38.53-20.8,76.46-19.87,87.52-19V151.17c-17.48,0-59.52,3.06-95.6,28.17-41.29,28.73-53.49,68-53.49,68l-5.69-21.78s-3.42-44,22.81-92c-5.39-8-8.58-18.76-8.58-32.08,0-30.74,16.85-48.12,39-48.12,15.64,0,28.56,8.55,34.91,24.23a140.8,140.8,0,0,1,20.69-6.49L224.9,79a119.63,119.63,0,0,0-22.07,5.92A65.65,65.65,0,0,1,204.36,94.23ZM86.17,149.58c-13.23,0-26.47-4-35.15-10.83l7.48-13.5c6.68,5.61,16.84,9.22,27.4,9.22,12.43,0,19.78-5.48,19.78-14.17,0-8.42-6.14-13.9-20.31-13.9H76.81V94.51L98.06,69.24H55.56V54.68h63.76V66.3l-22.73,27c17.65,2.28,26.6,12.84,26.6,26.87C123.19,135.94,111.3,149.58,86.17,149.58Z" transform="translate(-30.23 -30.41)"/>
        <path class="cls-2" d="M165.56,68.44c-12.69,0-21.52,10.43-21.52,33a60.64,60.64,0,0,0,1.71,15.13c11-14.64,25.73-25,39.26-32C181.63,73.64,174.6,68.44,165.56,68.44Z" transform="translate(-30.23 -30.41)"/>
        <path class="cls-2" d="M113.5,223.93c1.13-11.58,6.86-47.35,30.34-81.23a34.89,34.89,0,0,1-5.91-5.45C118.28,170.56,113.67,208.94,113.5,223.93Z" transform="translate(-30.23 -30.41)"/>
        <path class="cls-2" d="M153.45,130.2a152.41,152.41,0,0,1,20.23-19.75,87.1,87.1,0,0,1,13.54-9v0a69.47,69.47,0,0,0-.63-9.53,119.49,119.49,0,0,0-38.66,30.77A22.05,22.05,0,0,0,153.45,130.2Z" transform="translate(-30.23 -30.41)"/>
      </g>
      <path class="cls-2" d="M72,338.57c1.24,0,2.48-1.17,3.73-3.58a14.36,14.36,0,0,0,1.86-6.76c0-4.11-2.17-7-6.45-8.7-2.4-3.11-5.05-4.66-7.92-4.66q-6,0-11.19,5.13a35.81,35.81,0,0,0-8.4,12.74,40.53,40.53,0,0,0-3,15.15,19,19,0,0,0,8.08,15.86c3.73,5,6.45,6.29,10.26,6.29a12.86,12.86,0,0,0,9.41-4A22,22,0,0,0,74,357.45a7.75,7.75,0,0,0,.47-2.25c0-.7-.24-1-.7-1-.7,0-.62.54-1.48,1.4-4.74,5.51-9.63,8.23-14.84,8.23-6.3,0-9.4-4.35-9.4-13.13a37.63,37.63,0,0,1,2.72-13.44A35.31,35.31,0,0,1,58,325.59c3-3.18,6.06-4.74,9.17-4.74,2.72,0,4,1.32,4,3.89,0,3-1.55,6.21-4.66,9.71C67.73,336.63,70.22,338.57,72,338.57Z" transform="translate(-30.23 -30.41)"/>
      <path class="cls-2" d="M168.66,333.75c-1.47,0-3.1,1.24-5,3.73A90,90,0,0,0,157.4,348c-.24.39-.39.62-.47.62s-.15-.23,0-.77q3-10.38,5.83-17.72c1.79-4.9,3.11-8.24,3.88-9.87a11.52,11.52,0,0,0,1.09-3.26c0-.78-.78-1.56-2.25-2.26a11.27,11.27,0,0,0-4.59-1.09A158.55,158.55,0,0,0,153,336.55a127.31,127.31,0,0,0-3.33,14.52c-.06.1-.11.2-.17.32a48.88,48.88,0,0,1-2.87,5.67c-3,5.05-8,8.32-11.11,8.32-3.42,0-5.13-2.41-5.13-7.31v-.77a10,10,0,0,0,1.71.15c2.56,0,5.44-1.63,8.7-5s4.9-6.61,4.9-9.87c0-2.1-1.17-3.89-3.42-5.28-.86-1-1.48-1.64-1.79-1.95a7,7,0,0,0-4.51-1.71c-3.57,0-6.53,2.41-8.93,7.15a33.44,33.44,0,0,0-3.12,9.74,4.81,4.81,0,0,0-.38.83,45.82,45.82,0,0,1-2.41,5.28c-2.72,5.06-6,8-7.77,8-2.41,0-3.26-1.79-3.26-6.37,0-1.09.07-3,.31-5.52a66.86,66.86,0,0,0,12.28-17.72q3.72-8.28,3.73-12.82c0-1.94-1.33-3.42-3.89-4.27q-2.57-3-4.89-3a4.64,4.64,0,0,0-3.5,2c-2,2.33-3.73,6.29-5.52,11.81a136.22,136.22,0,0,0-3.81,15.15c-.53,2.86-.92,5.41-1.18,7.68a47.15,47.15,0,0,1-2.78,5.45c-3,5.05-8,8.32-11.11,8.32-3.42,0-5.13-2.41-5.13-7.31v-.77a10,10,0,0,0,1.71.15c2.57,0,5.44-1.63,8.71-5s4.89-6.61,4.89-9.87c0-2.1-1.17-3.89-3.42-5.28a24.44,24.44,0,0,0-1.79-1.95,7,7,0,0,0-4.5-1.71c-3.58,0-6.53,2.41-8.94,7.15A34.42,34.42,0,0,0,77.6,356.6a13,13,0,0,0,6.45,11.5A10.85,10.85,0,0,0,89.64,370c4.46,0,9.28-3.07,13.64-11.23.2,3.94,1.15,5.52,3.14,7,.55.31,2.73,2,3.66,2.64a8.2,8.2,0,0,0,3.73,1.48c3.1,0,6.32-3.81,9.67-11.34a13,13,0,0,0,6.33,9.63,10.88,10.88,0,0,0,5.6,1.86c4.47,0,9.31-3.09,13.68-11.3a8.75,8.75,0,0,0,4.34,7.34c1.33.7,4.51,4,6.69,3.73,3.34,0,5.51-1.63,8.23-4.82a34.74,34.74,0,0,0,3.5-5.75,52,52,0,0,0,2.88-7.22,32,32,0,0,0,1.4-9,9.36,9.36,0,0,0-2.57-6.29C171.77,334.68,170.14,333.75,168.66,333.75Zm-34.81,10.34c1.71-3.19,3.35-4.74,4.82-4.74.94,0,1.4.62,1.4,1.94,0,1.86-.85,4.12-2.56,6.84-.86,1.24-1.48,2.17-1.95,2.79-.93,1.25-3.18,3.5-5,3.89A29.86,29.86,0,0,1,133.85,344.09ZM116,329.79c2.1-6,3.89-9,5.21-9,.39,0,.62.62.62,1.87,0,6.29-4,15.7-10.57,24.79A120.78,120.78,0,0,1,116,329.79Zm-27.89,14.3c1.71-3.19,3.34-4.74,4.82-4.74.93,0,1.39.62,1.39,1.94,0,1.86-.85,4.12-2.56,6.84-.85,1.24-1.48,2.17-1.94,2.79-.93,1.25-3.19,3.5-5,3.89A29.66,29.66,0,0,1,88.09,344.09Zm78.17,8.62a40.59,40.59,0,0,1-3.81,9.09q-2.1,3.74-4,3.73c-1.47,0-2.17-1.24-2.17-3.73a10.66,10.66,0,0,1,.08-1.78,35.2,35.2,0,0,1,3.73-11.5c2.56-5.21,5.51-8,6.83-8,.71,0,1.09.86,1.09,2.57A35.19,35.19,0,0,1,166.26,352.71Z" transform="translate(-30.23 -30.41)"/>
      <path class="cls-2" d="M271,326.29a6.74,6.74,0,0,0,2.09-4.58,3.87,3.87,0,0,0-4-4.12,5.1,5.1,0,0,0-4.19,2.33,8,8,0,0,0-1.79,4.82c0,2.41,1.32,3.8,3.42,3.8A6.16,6.16,0,0,0,271,326.29Z" transform="translate(-30.23 -30.41)"/>
      <path class="cls-2" d="M326.55,342.38a12.94,12.94,0,0,0-3-5.13c-2.41-2.57-4.66-3.81-6.84-3.81-3.42,0-6.53,2.56-9.25,7.77a34.15,34.15,0,0,0-3.27,9.28,19.86,19.86,0,0,0-.92,2.07,32.56,32.56,0,0,1-5.05,8.62c-1.94,2.26-3.42,3.42-4.35,3.42s-1-.54-1-1.94a40.79,40.79,0,0,1,1.4-8.16,51,51,0,0,1,3.26-10.1c1.48-3.11,2.33-5,2.57-5.52a6.88,6.88,0,0,0-6.14-3.65c-1.95,0-4.2,1.86-6.69,5.51a126.06,126.06,0,0,0-8.39,14.61l-.23-.07a74.41,74.41,0,0,1,2.64-9.64c1.71-5,2.33-6.22,2.1-6.84-.31-1-3.27-2.56-7-2.56a122.39,122.39,0,0,0-3.85,14.48,1.34,1.34,0,0,0-.18.28,67.34,67.34,0,0,1-3.73,7.46c-3.34,5.36-7.54,9-7.23,3.19a51.61,51.61,0,0,1,2.17-12.36c2-7.54,4-10.88,3.74-11.5,0-.7-.94-1.4-2.72-2a18.21,18.21,0,0,0-4.9-.85,49,49,0,0,0-1.94,5.9c-.86,2.72-1.63,6-2.41,9.64l0,.14a3.47,3.47,0,0,0-.36.79,42.32,42.32,0,0,1-3.18,6.53c-2.8,4.74-6.38,7.3-8.24,7.3-1.17,0-1.17-1.16-1.17-2.87,0-5.52,1.87-14.38,5.67-26.5h8.63a5.89,5.89,0,0,0,.15-1.09c0-1.86-.85-3.81-2-3.73-1.86.08-3.65.16-5.28.16.7-1.95,1.32-3.66,1.87-5.05a36.33,36.33,0,0,0,1.32-3.66c0-1.16-2.8-2.33-6.22-2.33a6.13,6.13,0,0,0-1.32.08,99.48,99.48,0,0,0-3.88,10.88l-6.07-.08a6.89,6.89,0,0,0-.15,1.09c0,1.86.77,3.73,2,3.73h2.87c-1.77,6.25-3,11.52-3.85,15.89a58.64,58.64,0,0,1-4,8.51c-1.71,3-3.19,4.51-4.51,4.51-.77,0-1.16-.94-1.16-2.8,0-3.73,1-8.47,2.95-14.3,1-3,2.72-7,2.72-7.07-1.09-1.63-3-2.41-5.75-2.41a6.62,6.62,0,0,0-1.32.16c-1.79-1.32-3-2.26-3.58-2.72a10.73,10.73,0,0,0-5.82-1.79c-2.26,0-4.43,1.4-6.38,4.27A35,35,0,0,0,204,351.27c-.11.27-.24.59-.41,1a42.14,42.14,0,0,1-3.34,7c-2.41,4-4.74,5.67-6.22,5.67-1,0-1.47-.62-1.47-1.86,0-1.48.62-3.81,1.79-7.07a24.13,24.13,0,0,0,1.78-6.92c0-2.56-1.32-4.12-4.74-6a45.5,45.5,0,0,1-5.36-3.27,94.28,94.28,0,0,0,2.95-9.48,2.69,2.69,0,0,0-2.56-1.09,7.62,7.62,0,0,0-4.66,2,6.23,6.23,0,0,0-2.57,5c0,1.47.93,3,2.8,4.74a81.15,81.15,0,0,1-3.19,10.88,2.31,2.31,0,0,0-.15.85,1.43,1.43,0,0,0,1.32,1.56,1.06,1.06,0,0,0,1-.78c.93-2.25,2.25-5.91,4-10.88,2.25,1.48,3.42,3.26,3.42,5.28a27.5,27.5,0,0,1-1.32,6.45,26.92,26.92,0,0,0-1.32,6.3,7.13,7.13,0,0,0,1.94,4.58c2.49,2.88,4.9,4.35,7.3,4.35s5.14-3.43,8.31-10.14c.15,3.33.89,5.84,2.42,7.5q2.45,2.81,4.66,2.8c2.72,0,5.83-4,9.17-12l.23.08c-.23,1.94-.39,3.34-.39,4.2a6.37,6.37,0,0,0,.7,3.1c.55,1,1.79,2,3.81,3.19a8.64,8.64,0,0,0,3.73,1.4c2.22,0,4.67-2.9,7.42-8.67.11,1.72,1.24,3.64,3.46,5.64,2.25,2.18,4.35,3.26,6.13,3.26,2.51,0,5.93-3.28,9.51-10.31a8.82,8.82,0,0,0,1.22,4.72c2.09,2.8,5.36,5,7.46,5,1.78,0,3.49-1.16,5.2-3.42a32.56,32.56,0,0,0,2.54-4.38,21.75,21.75,0,0,0-.21,2.44,2.43,2.43,0,0,0,.31,1.55,7.43,7.43,0,0,0,2.64,2.49,5.8,5.8,0,0,0,2.88,1.32c.7,0,1.24-1.47,1.24-2.64a39,39,0,0,1,5.91-14,99.94,99.94,0,0,1,6.45-8.78l.23.16A68.1,68.1,0,0,0,286.69,355a36.13,36.13,0,0,0-.93,7.53,8.57,8.57,0,0,0,.23,2.26c.31.93,1.48,1.86,3.5,2.87,1.16.55,3,2.41,4.35,2.41,1.79,0,4.81-2.72,7-6.45.92-1.52,1.71-3,2.43-4.46,0,.14,0,.28,0,.42,0,6.45,3.26,9.56,7.23,9.56,2.56,0,5.43-4,8.54-11.89l.16.08c-.23.77-1,3.57-2.41,8.31q-4.78,15.61-9.09,15.62c-1,0-1.87-.78-2.57-2.33a13.79,13.79,0,0,1-.7-5.52,3.71,3.71,0,0,0-1.16-.15,8.6,8.6,0,0,0-2,.31c-2,.46-3,1.4-3,2.87,0,1.87,1.16,3.73,3.41,5.6a11.49,11.49,0,0,0,7.23,2.72c6.22,0,11.5-8.08,15.93-24.32.31-1.17.78-2.8,1.32-4.9s1.09-4.27,1.71-6.68,1-4,1.24-5a4.11,4.11,0,0,0-2.56-1.32Zm-104.66,3.18a70.76,70.76,0,0,1-5.59,12.82c-2.1,3.66-3.81,5.52-5,5.52-.7,0-1-.93-1-2.8a36.19,36.19,0,0,1,3.26-14.22c2.18-5.05,4.28-7.61,6.3-7.61,1.32,0,2.33,1.09,2.88,3.18Zm99,1.71a92.68,92.68,0,0,1-5.36,11.27c-1.79,3.19-3.19,4.74-4.2,4.74-.78,0-1.17-.78-1.17-2.33a36.58,36.58,0,0,1,3.5-15.15c2-3.89,4.35-6.53,6-6.53.93,0,1.39.78,1.39,2.25a9.19,9.19,0,0,1-.62,3.11,5.27,5.27,0,0,0-.15.62,1.24,1.24,0,0,0,.85,1.17Z" transform="translate(-30.23 -30.41)"/>
      <path class="cls-2" d="M418.8,326.29a6.71,6.71,0,0,0,2.1-4.58,3.88,3.88,0,0,0-4-4.12,5.1,5.1,0,0,0-4.19,2.33,8,8,0,0,0-1.79,4.82c0,2.41,1.32,3.8,3.42,3.8A6.14,6.14,0,0,0,418.8,326.29Z" transform="translate(-30.23 -30.41)"/>
      <path class="cls-2" d="M482.9,339.89c-.31.39-.85,2.18-1.63,5.44a55,55,0,0,1-5.21,12.59c-2.41,4.12-4.12,6.21-5.2,6.21-.86,0-1.25-.69-1.25-2.17a43.47,43.47,0,0,1,.86-6.92,58,58,0,0,1,1.78-7.69c1.56-5.05,3-8.47,4.2-10.1-1.08-1.32-2.95-2-5.59-2a3.27,3.27,0,0,0-2.65,1.08c-.54.71-1.39,3-2.56,6.77a71.82,71.82,0,0,0-2.09,8.47,42.59,42.59,0,0,1-3.11,6.37c-2.8,4.74-6.38,7.3-8.24,7.3-1.17,0-1.17-1.16-1.17-2.87,0-5.52,1.87-14.38,5.67-26.5h8.63a5.89,5.89,0,0,0,.15-1.09c0-1.86-.85-3.81-2-3.73-1.86.08-3.65.16-5.28.16.7-1.95,1.32-3.66,1.87-5.05a36.33,36.33,0,0,0,1.32-3.66c0-1.16-2.8-2.33-6.22-2.33a6.13,6.13,0,0,0-1.32.08A101,101,0,0,0,450,331.11l-6.06-.08a5.89,5.89,0,0,0-.15,1.09c0,1.86.77,3.73,2,3.73h2.87c-1.79,6.3-3.07,11.61-3.87,16l-.17.4a41.36,41.36,0,0,1-3.34,7c-2.41,4-4.74,5.67-6.22,5.67-1,0-1.47-.62-1.47-1.86,0-1.48.62-3.81,1.79-7.07a24.13,24.13,0,0,0,1.78-6.92c0-2.56-1.32-4.12-4.74-6a45.5,45.5,0,0,1-5.36-3.27,98.65,98.65,0,0,0,3-9.48,2.71,2.71,0,0,0-2.57-1.09,7.62,7.62,0,0,0-4.66,2,6.23,6.23,0,0,0-2.57,5c0,1.47.94,3,2.8,4.74a81,81,0,0,1-3,10.28,65.42,65.42,0,0,1-3.61,7.2c-3.34,5.36-7.54,9-7.23,3.19a51.23,51.23,0,0,1,2.18-12.36c2-7.54,4-10.88,3.73-11.5,0-.7-.93-1.4-2.72-2a18.21,18.21,0,0,0-4.9-.85,51,51,0,0,0-1.94,5.9c-.85,2.72-1.63,6-2.41,9.64,0,.1,0,.19-.05.29a2.92,2.92,0,0,0-.33.64c-.23.55-.62,1.48-1.17,2.64-3.11,6.84-6.76,10.57-8.62,10.57-.78,0-1.17-.93-1.17-2.8,0-2.87.93-6.83,2.87-11.89.55-1.24,1.41-3.65,1.64-4.27a12.16,12.16,0,0,0,.77-4c0-1.4-.77-3-2.25-4.82s-2.87-2.72-4.2-2.72-3.34,1.32-5.43,4c-1.17,1.48-3.5,5.6-7,12.2l-.23-.08c3.8-13.05,7.07-23.15,9.71-30.22a7.62,7.62,0,0,0,.62-2.1,1.29,1.29,0,0,0-.23-.7c-.93-1.55-4.27-2.49-6.68-2.49-.23.58-.48,1.24-.73,2-8.7.54-19.33.85-31.83.85h-3.57c-.39,0-.63.31-.63.85,0,1.33,1.33,4.12,2.26,4.67H359c-5.05,23-8.24,37.76-9.4,44.21a12.25,12.25,0,0,0,6.68,2,3,3,0,0,0,1.17-.23c.38-.54.38-.78.62-2.17A429.46,429.46,0,0,1,367,323.11c3.35,0,7.2.05,11.52.11q-1.75,5.86-4,14.42c-1.48,5.51-2.72,11.11-3.89,16.94a78,78,0,0,0-1.71,10.88c0,.93.86,1.71,2.49,2.41a10,10,0,0,0,4,.77l.16-.93a55,55,0,0,1,5.75-17.49,48.37,48.37,0,0,1,4.5-7c1.48-1.94,2.57-2.87,3.19-2.87a.41.41,0,0,1,.47.46c0,.55-1.25,3.5-2.1,6.69-1.56,5.59-2.33,9.63-2.33,12.2a8.78,8.78,0,0,0,1.4,5.36c2.09,2.72,5,4.27,6.84,4.27,2.45,0,5.45-3,8.65-9.45a8.62,8.62,0,0,0,1.21,4.48c2.1,2.8,5.36,5,7.46,5,1.79,0,3.5-1.16,5.21-3.42s3.65-6.37,6.06-12.28l0-.09s0,0,0-.06c.93-2.25,2.25-5.91,4-10.88,2.26,1.48,3.42,3.26,3.42,5.28a27.5,27.5,0,0,1-1.32,6.45,27.47,27.47,0,0,0-1.32,6.3,7.13,7.13,0,0,0,1.94,4.58c2.49,2.88,4.9,4.35,7.31,4.35,2.18,0,4.77-3,7.69-8.85v.07c0,1.79,1.16,3.81,3.5,5.91s4.35,3.26,6.13,3.26c2.49,0,5.88-3.23,9.42-10.15a8.23,8.23,0,0,0,1.7,5.26c2.25,2.72,4.19,4,5.9,4,2.64,0,5.6-4,8.78-11.81.08-.08.24-.16.24.07a135.94,135.94,0,0,1-4.36,15.78c-2.09,5.83-4.27,8.78-6.68,8.78a3,3,0,0,1-2.8-2.1,11.31,11.31,0,0,1-.93-2.17c-.31-1.17-.78-2.8-1.09-4.2a5.64,5.64,0,0,0-.93-.16c-2.49,0-5.29,1.25-5.29,2.88s1,3.5,3,5.44a9.4,9.4,0,0,0,6.84,2.87c5.36,0,10.8-3.57,14.3-12.2a143.07,143.07,0,0,0,4.89-16.24,142,142,0,0,0,3.11-14.3,7.34,7.34,0,0,0-5.05-2.33A1.87,1.87,0,0,0,482.9,339.89Z" transform="translate(-30.23 -30.41)"/>
      <path class="cls-2" d="M544.56,318.6a7.11,7.11,0,0,0-4.58-3c-.63,0-1.56.77-2.73,2.25q-3,3.84-8.62,12.35c-3.73,5.68-6.84,10.73-9.25,15.16H519c-.39-4.12-1.56-13.45-3.58-27.82-.23-1.32-1.09-1.94-2.64-1.94a13.26,13.26,0,0,0-5.44,1.47c.23,1.48.7,4.59,1.55,9.4,1.56,9.64,2.88,18.5,3.42,24.17a137.64,137.64,0,0,0-3.42,16.94,13.19,13.19,0,0,0,6.14,1.63,1.55,1.55,0,0,0,.7-.15c.31-.23.62-1.17,1-2.95a128.57,128.57,0,0,1,3.65-15.55c4.12-6.52,8.55-12.82,13.21-18.8S541.92,321.39,544.56,318.6Z" transform="translate(-30.23 -30.41)"/>
      <path class="cls-2" d="M641.45,351.24a4.9,4.9,0,0,0-1.71-.24,33,33,0,0,0-8.86,1.63c-.16-.38-.47-1.39-.62-1.86-.23-.86-.62-1.87-1.09-3.11-.93-2.41-1.32-3.65-1.32-5a8,8,0,0,1,2.8-6.3,11,11,0,0,0-3.58-2.79,5.84,5.84,0,0,0-2.48-.63,3.64,3.64,0,0,0-1.48.31c-1.79.86-3.27,4-3.27,8.63v.31a80.39,80.39,0,0,1-2.87,8.24c-.07.22-.12.39-.18.57s-.29.7-.52,1.22a41.36,41.36,0,0,1-3.34,7c-2.41,4-4.74,5.67-6.22,5.67-1,0-1.47-.62-1.47-1.86,0-1.48.62-3.81,1.79-7.07a24.13,24.13,0,0,0,1.78-6.92c0-2.56-1.32-4.12-4.74-6a45.5,45.5,0,0,1-5.36-3.27,94.28,94.28,0,0,0,2.95-9.48,2.68,2.68,0,0,0-2.56-1.09,7.62,7.62,0,0,0-4.66,2,6.23,6.23,0,0,0-2.57,5c0,1.47.94,3,2.8,4.74a80.81,80.81,0,0,1-3.11,10.63,58.73,58.73,0,0,1-4,8.64c-1.71,3-3.19,4.51-4.51,4.51-.78,0-1.17-.94-1.17-2.8,0-3.73,1-8.47,3-14.3,1-3,2.72-7,2.72-7.07-1.09-1.63-3-2.41-5.76-2.41a6.72,6.72,0,0,0-1.32.16c-1.78-1.32-3-2.26-3.57-2.72a10.74,10.74,0,0,0-5.83-1.79c-2.25,0-4.43,1.4-6.37,4.27a34.83,34.83,0,0,0-5.25,13.07l-.11.22a48.88,48.88,0,0,1-2.87,5.67c-3,5.05-8,8.32-11.12,8.32-3.41,0-5.13-2.41-5.13-7.31v-.77a10.12,10.12,0,0,0,1.72.15c2.56,0,5.43-1.63,8.7-5s4.89-6.61,4.89-9.87c0-2.1-1.16-3.89-3.41-5.28-.86-1-1.48-1.64-1.79-1.95a7,7,0,0,0-4.51-1.71c-3.58,0-6.53,2.41-8.94,7.15a34.42,34.42,0,0,0-3.65,15.78,13,13,0,0,0,6.45,11.5,10.88,10.88,0,0,0,5.6,1.86c4.4,0,9.16-3,13.48-10.93.1,3.53.86,6.17,2.44,7.9s3.19,2.8,4.67,2.8c2.72,0,5.82-4,9.16-12l.24.08a41,41,0,0,0-.39,4.2,6.26,6.26,0,0,0,.7,3.1c.54,1,1.78,2,3.81,3.19a8.6,8.6,0,0,0,3.73,1.4c2.87,0,6.14-4.82,9.94-14.53.3-.8.53-1.43.71-1.95.93-2.27,2.22-5.82,4-10.64,2.25,1.48,3.42,3.26,3.42,5.28a27.5,27.5,0,0,1-1.32,6.45,27.47,27.47,0,0,0-1.32,6.3,7.13,7.13,0,0,0,1.94,4.58c2.49,2.88,4.9,4.35,7.31,4.35,2.87,0,6.45-5.12,10.57-15.3.27-.66.46-1.19.59-1.58,0-.07.07-.13.1-.21.23-.54.85-2.49,2-5.83,2,5,3.18,7.77,3.41,8.39-4.89,2.41-7.38,5-7.38,7.7a7,7,0,0,0,2.64,5.13,7.93,7.93,0,0,0,5.29,2.48,7,7,0,0,0,5.59-3,9.62,9.62,0,0,0,2.25-5.75,23.16,23.16,0,0,0-1-6.3,24.31,24.31,0,0,1,4.58-.54,12.83,12.83,0,0,1,5.75,1.32c.39.23.78-.7.78-1.94C642.85,352.56,642.38,351.62,641.45,351.24Zm-97.75-7.15c1.71-3.19,3.34-4.74,4.82-4.74.93,0,1.4.62,1.4,1.94,0,1.86-.86,4.12-2.57,6.84-.85,1.24-1.47,2.17-1.94,2.79-.93,1.25-3.19,3.5-5,3.89A29.66,29.66,0,0,1,543.7,344.09Zm33.64,1.47a70.06,70.06,0,0,1-5.59,12.82c-2.1,3.66-3.81,5.52-5,5.52-.7,0-1-.93-1-2.8A36,36,0,0,1,569,346.88c2.18-5.05,4.27-7.61,6.29-7.61,1.33,0,2.34,1.09,2.88,3.18Zm45.46,20.67c-1.17,0-1.71-.7-1.71-2.1,0-2.48,1.48-4.66,4.43-6.45a18.17,18.17,0,0,1,.62,3.74C626.14,363.9,624.35,366.23,622.8,366.23Z" transform="translate(-30.23 -30.41)"/>
      <path class="cls-2" d="M367.88,377.53h-9.29c-1,0-1.62.43-1.62,1.19,0,1.84,3.43,5.72,5.86,6.48L403.09,384c30.1-.72,50.27-6.42,47.64-7.6C428.1,377.1,400.41,377.53,367.88,377.53Z" transform="translate(-30.23 -30.41)"/>
    </g>
  </g>
</svg>
