<svg width="152" height="58" viewBox="0 0 152 58" fill="none" xmlns="http://www.w3.org/2000/svg">
<g clip-path="url(#clip0)">
<path d="M2.43141 54.4714C1.62094 54.6184 0.81047 54.839 0 55.0595L0.0736791 57.9264H20.5565C18.0514 56.0886 10.8308 52.9277 2.43141 54.4714Z" fill="#EE6C2D"/>
<path d="M36.8396 42.3422C45.7548 38.6666 54.5963 41.019 57.6171 42.0481V38.9607C54.9647 38.4461 45.3127 36.9024 36.4712 40.5779C25.1246 45.2826 21.588 56.5297 21.588 56.5297C21.588 56.5297 24.0194 44.9885 36.2502 38.3726C45.6811 33.3003 54.9647 33.5209 57.6171 33.7414V29.9923C53.3437 29.9923 43.0287 30.7275 34.2608 36.8288C24.1668 43.8124 21.2196 53.4423 21.2196 53.4423L19.8197 48.1495C19.8197 48.1495 18.8619 35.5057 27.1876 22.7883C33.4504 13.1584 46.4916 10.512 46.4916 10.512L47.3757 12.4233C47.3757 12.4233 34.3345 14.1875 27.114 25.0671C21.5144 33.5209 20.1881 43.8859 20.1881 47.782C20.5565 44.0329 22.9143 29.7718 34.924 20.0684C42.2182 14.0405 52.0912 14.7021 52.0912 14.7021L57.5434 25.8757V0.514526H0.0737305V35.2851C12.4518 39.9163 18.4198 48.4436 18.4198 48.4436C18.4198 48.4436 19.8934 53.2953 20.0408 54.0304C20.0408 54.0304 13.0413 46.3117 0.736842 46.0177C0.515805 46.0177 0.294768 46.0177 0.0737305 46.0177V48.223C13.2623 47.8555 20.7039 56.6032 20.7039 56.6032C20.7039 56.6032 12.1571 48.8111 0.0737305 50.1343L0.14741 52.5602C0.442126 52.4866 0.663163 52.4866 1.03156 52.4131C11.1993 51.1635 17.9041 55.5741 20.7039 58H22.1038C22.9143 55.2065 26.1561 46.7528 36.8396 42.3422Z" fill="#EE6C2D"/>
<path d="M36.6922 45.1356C27.1875 48.4436 23.2826 55.5006 22.1774 57.9264H57.5433V47.4879C55.1856 46.2382 45.8284 41.9746 36.6922 45.1356Z" fill="#EE6C2D"/>
<path d="M66.4586 13.8201V18.1572H71.3214V19.7009H66.4586V26.8315H64.8376V12.3499H71.4688V13.8201H66.4586Z" fill="#84898E"/>
<path d="M77.8789 25.3613H81.8575V26.8315H76.2579V12.3499H77.8789V25.3613Z" fill="#84898E"/>
<path d="M86.5729 19.6274C86.5729 22.8618 89.2254 25.6553 92.5409 25.6553C95.8565 25.6553 98.5089 22.9354 98.5089 19.6274C98.5089 16.3194 95.8565 13.5995 92.5409 13.5995C89.1517 13.5995 86.5729 16.3194 86.5729 19.6274ZM100.056 19.6274C100.056 23.8175 96.5933 27.1255 92.4672 27.1255C88.3412 27.1255 84.8783 23.8175 84.8783 19.6274C84.8783 15.4373 88.3412 12.1293 92.4672 12.1293C96.667 12.1293 100.056 15.4373 100.056 19.6274Z" fill="#84898E"/>
<path d="M106.098 19.0393H106.614C108.456 19.0393 110.298 18.6718 110.298 16.4665C110.298 14.1141 108.529 13.8201 106.614 13.8201H106.098V19.0393ZM106.098 26.8315H104.477V12.3499H106.614C109.34 12.3499 111.919 13.085 111.919 16.3194C111.919 18.5248 110.519 20.142 108.308 20.289L112.95 26.758H110.961L106.54 20.3625H106.098V26.8315Z" fill="#84898E"/>
<path d="M118.55 12.3499H116.929V26.8315H118.55V12.3499Z" fill="#84898E"/>
<path d="M126.507 25.3613C128.275 25.3613 129.749 25.1407 131.075 23.891C132.254 22.7884 132.917 21.2447 132.917 19.6274C132.917 17.9367 132.254 16.3929 131.002 15.2903C129.675 14.1141 128.202 13.8936 126.507 13.8936H125.328V25.4348H126.507V25.3613ZM123.707 12.3499H126.433C128.644 12.3499 130.412 12.6439 132.107 14.1141C133.801 15.5108 134.538 17.4956 134.538 19.6274C134.538 21.7592 133.801 23.597 132.18 25.0672C130.412 26.6109 128.717 26.905 126.433 26.905H123.707V12.3499Z" fill="#84898E"/>
<path d="M144.043 15.4373L141.538 21.2447H146.474L144.043 15.4373ZM140.948 22.7149L139.18 26.8315H137.411L144.116 11.6147L150.674 26.8315H148.832L147.137 22.7149H140.948Z" fill="#84898E"/>
<path d="M66.4586 38.0051H67.5638C69.3321 38.0051 70.8793 37.4905 70.8793 35.3587C70.8793 33.0064 68.9637 32.7858 67.048 32.7858H66.4586V38.0051ZM66.4586 45.8707H64.8376V31.3156H67.1954C68.4479 31.3156 69.7741 31.3891 70.8056 32.0507C71.9108 32.7858 72.4266 34.0355 72.4266 35.3587C72.4266 36.5349 71.9108 37.7111 71.0267 38.4462C70.0689 39.2548 68.8163 39.4018 67.5638 39.4018H66.3849V45.8707H66.4586Z" fill="#84898E"/>
<path d="M79.4997 38.0786H80.0155C81.8575 38.0786 83.6994 37.7111 83.6994 35.5057C83.6994 33.1534 81.9311 32.8593 80.0155 32.8593H79.4997V38.0786ZM79.4997 45.8707H77.8788V31.3156H79.9418C82.6679 31.3156 85.2467 32.0507 85.2467 35.2852C85.2467 37.4905 83.8468 39.1078 81.6364 39.2548L86.2782 45.7237H84.2889L79.8681 39.3283H79.4997V45.8707Z" fill="#84898E"/>
<path d="M91.6569 31.3156H99.1721V32.8593H93.2778V37.123H99.0248V38.6667H93.2778V44.327H99.1721V45.8707H91.6569V31.3156Z" fill="#84898E"/>
<path d="M106.982 38.0051H108.087C109.856 38.0051 111.403 37.4905 111.403 35.3587C111.403 33.0064 109.487 32.7858 107.571 32.7858H106.982V38.0051ZM106.982 45.8707H105.361V31.3156H107.719C108.971 31.3156 110.298 31.3891 111.329 32.0507C112.434 32.7858 112.95 34.0355 112.95 35.3587C112.95 36.5349 112.434 37.7111 111.55 38.4462C110.592 39.2548 109.34 39.4018 108.087 39.4018H106.908V45.8707H106.982Z" fill="#84898E"/>
<path d="M122.234 34.403L119.729 40.2104H124.665L122.234 34.403ZM119.065 41.7541L117.297 45.8707H115.529L122.234 30.654L128.791 45.8707H127.023L125.328 41.7541H119.065Z" fill="#84898E"/>
<path d="M135.128 31.3156H133.507V45.7972H135.128V31.3156Z" fill="#84898E"/>
<path d="M143.969 44.327C145.737 44.327 147.211 44.1065 148.537 42.8568C149.716 41.7541 150.379 40.2104 150.379 38.5932C150.379 36.9759 149.716 35.3587 148.463 34.256C147.137 33.0799 145.664 32.8593 143.969 32.8593H142.79V44.4005H143.969V44.327ZM141.169 31.3156H143.895C146.106 31.3156 147.874 31.6097 149.569 33.0799C151.19 34.4766 152 36.4614 152 38.5932C152 40.725 151.263 42.5628 149.642 44.033C147.874 45.5767 146.179 45.8707 143.895 45.8707H141.169V31.3156Z" fill="#84898E"/>
<path d="M66.8269 52.5602C66.2375 52.5602 65.6481 52.7807 65.2797 53.2218C64.8376 53.6629 64.6166 54.1774 64.6166 54.839C64.6166 55.3536 64.7639 55.7947 64.9849 56.1622C65.427 56.7503 66.0901 57.1179 66.8269 57.1179C67.49 57.1179 68.1532 56.8238 68.5952 56.2357V57.1179C68.0795 57.4854 67.4164 57.706 66.7532 57.706C66.1638 57.706 65.6481 57.5589 65.1323 57.1914C64.3218 56.6768 63.8798 55.7947 63.8798 54.839C63.8798 53.9569 64.1745 53.2953 64.7639 52.7807C65.3533 52.2662 66.0165 51.9721 66.8269 51.9721C67.49 51.9721 68.0795 52.1926 68.5952 52.5602V53.4423C68.1532 52.8542 67.5637 52.5602 66.8269 52.5602Z" fill="#84898E"/>
<path d="M74.1212 56.4563C74.5633 56.0152 74.7843 55.5006 74.7843 54.839C74.7843 54.2509 74.5633 53.6629 74.1212 53.2218C73.6791 52.7807 73.1634 52.5602 72.5003 52.5602C71.9108 52.5602 71.3214 52.7807 70.8793 53.2218C70.4372 53.6629 70.2162 54.2509 70.2162 54.839C70.2162 55.4271 70.4372 56.0152 70.8793 56.4563C71.3214 56.8973 71.8372 57.1179 72.5003 57.1179C73.0897 57.1179 73.6791 56.8973 74.1212 56.4563ZM74.5633 56.8973C73.9738 57.4119 73.2371 57.706 72.5003 57.706C71.6898 57.706 70.953 57.4119 70.4372 56.8973C69.8478 56.3828 69.5531 55.6476 69.5531 54.839C69.5531 54.0304 69.8478 53.3688 70.4372 52.7807C70.953 52.2662 71.7635 51.9721 72.5003 51.9721C73.2371 51.9721 74.0475 52.2662 74.5633 52.7807C75.1527 53.2953 75.4474 54.0304 75.4474 54.839C75.4474 55.6476 75.1527 56.3092 74.5633 56.8973Z" fill="#84898E"/>
<path d="M76.5526 52.1191H77.2157V56.9708H79.2787V57.5589H76.5526V52.1191Z" fill="#84898E"/>
<path d="M80.0892 52.1191H80.7523V56.9708H82.8154V57.5589H80.0892V52.1191Z" fill="#84898E"/>
<path d="M83.6995 52.1191H86.5729V52.7072H84.2889V54.251H86.5729V54.839H84.2889V56.9708H86.5729V57.5589H83.6995V52.1191Z" fill="#84898E"/>
<path d="M92.983 54.7655V54.9125C92.983 56.6768 91.9515 57.706 90.2568 57.706C89.7411 57.706 89.2253 57.5589 88.8569 57.4119C87.9728 56.8973 87.457 56.0152 87.457 54.9125C87.457 54.0304 87.7518 53.2953 88.3412 52.7072C88.8569 52.2662 89.5201 51.9721 90.2568 51.9721C91.2884 51.9721 92.0988 52.3397 92.6146 53.1483L92.0988 53.5893C91.7304 52.9278 91.141 52.5602 90.3305 52.5602C89.078 52.5602 88.1938 53.5158 88.1938 54.9125C88.1938 56.2357 89.078 57.1179 90.3305 57.1179C91.4357 57.1179 92.2462 56.3828 92.3199 55.3536H90.7726V54.7655H92.983Z" fill="#84898E"/>
<path d="M94.0145 52.1191H96.888V52.7072H94.6776V54.251H96.888V54.839H94.6776V56.9708H96.888V57.5589H94.0145V52.1191Z" fill="#84898E"/>
<path d="M100.425 52.1191H103.298V52.7072H101.014V54.251H103.298V54.839H101.014V57.5589H100.425V52.1191Z" fill="#84898E"/>
<path d="M108.603 56.4563C109.045 56.0152 109.266 55.5006 109.266 54.839C109.266 54.2509 109.045 53.6629 108.603 53.2218C108.161 52.7807 107.645 52.5602 106.982 52.5602C106.393 52.5602 105.803 52.7807 105.361 53.2218C104.919 53.6629 104.698 54.2509 104.698 54.839C104.698 55.4271 104.919 56.0152 105.361 56.4563C105.803 56.8973 106.319 57.1179 106.982 57.1179C107.645 57.1179 108.161 56.8973 108.603 56.4563ZM109.119 56.8973C108.529 57.4119 107.793 57.706 107.056 57.706C106.319 57.706 105.509 57.4119 104.993 56.8973C104.403 56.3828 104.109 55.6476 104.109 54.839C104.109 54.0304 104.403 53.3688 104.993 52.7807C105.509 52.2662 106.319 51.9721 107.056 51.9721C107.866 51.9721 108.603 52.2662 109.119 52.7807C109.708 53.2953 110.003 54.0304 110.003 54.839C109.929 55.6476 109.635 56.3092 109.119 56.8973Z" fill="#84898E"/>
<path d="M111.698 52.1191V55.5006C111.698 56.6033 112.14 57.1179 113.171 57.1179C114.203 57.1179 114.645 56.6033 114.645 55.5006V52.1191H115.308V55.5006C115.308 56.9708 114.645 57.706 113.171 57.706C111.771 57.706 111.034 56.9708 111.034 55.5006V52.1191H111.698Z" fill="#84898E"/>
<path d="M116.634 51.8986L120.613 56.2358V52.1192H121.276V57.7795L117.297 53.4423V57.559H116.634V51.8986Z" fill="#84898E"/>
<path d="M123.707 56.9708C124.665 56.9708 125.328 56.9708 125.77 56.6033C126.212 56.2357 126.433 55.6477 126.433 54.839C126.433 54.1039 126.212 53.5158 125.77 53.1483C125.328 52.7807 124.665 52.7807 123.707 52.7807H123.265V57.0444H123.707V56.9708ZM122.676 52.1191H123.707C124.739 52.1191 125.549 52.1191 126.212 52.6337C126.875 53.1483 127.17 53.8834 127.17 54.839C127.17 55.7947 126.875 56.6033 126.212 57.0444C125.549 57.5589 124.886 57.5589 124.002 57.5589H123.781H122.749V52.1191H122.676Z" fill="#84898E"/>
<path d="M128.938 55.3536H130.707L129.823 53.3688L128.938 55.3536ZM132.328 57.559H131.591L130.854 55.8682H128.717L127.981 57.559H127.244L129.749 51.8986L132.328 57.559Z" fill="#84898E"/>
<path d="M133.506 52.7072H131.959V52.1191H135.717V52.7072H134.17V57.5589H133.506V52.7072Z" fill="#84898E"/>
<path d="M137.19 52.1191H136.527V57.5589H137.19V52.1191Z" fill="#84898E"/>
<path d="M142.79 56.4563C143.232 56.0152 143.453 55.5006 143.453 54.839C143.453 54.2509 143.232 53.6629 142.79 53.2218C142.348 52.7807 141.832 52.5602 141.169 52.5602C140.58 52.5602 139.99 52.7807 139.548 53.2218C139.106 53.6629 138.885 54.2509 138.885 54.839C138.885 55.4271 139.106 56.0152 139.548 56.4563C139.99 56.8973 140.506 57.1179 141.169 57.1179C141.832 57.1179 142.348 56.8973 142.79 56.4563ZM143.306 56.8973C142.716 57.4119 141.98 57.706 141.243 57.706C140.506 57.706 139.696 57.4119 139.18 56.8973C138.59 56.3828 138.296 55.6476 138.296 54.839C138.296 54.0304 138.59 53.3688 139.18 52.7807C139.696 52.2662 140.506 51.9721 141.243 51.9721C141.98 51.9721 142.79 52.2662 143.306 52.7807C143.895 53.2953 144.19 54.0304 144.19 54.839C144.116 55.6476 143.822 56.3092 143.306 56.8973Z" fill="#84898E"/>
<path d="M145.221 51.8986L149.274 56.2358V52.1192H149.863V57.7795L145.885 53.4423V57.559H145.221V51.8986Z" fill="#84898E"/>
<path d="M67.4163 1.47024C67.1953 1.10269 66.9006 0.882154 66.4585 0.882154C65.9428 0.882154 65.427 1.24971 65.427 1.76428C65.427 2.27886 65.8691 2.49939 66.3112 2.64641L66.7532 2.79343C67.6374 3.16099 68.3005 3.60205 68.3005 4.6312C68.3005 5.73386 67.4163 6.54248 66.3112 6.54248C65.3533 6.54248 64.5429 5.80738 64.3955 4.85174L65.1323 4.70471C65.1323 5.36631 65.648 5.88089 66.3112 5.88089C66.9743 5.88089 67.4163 5.36631 67.4163 4.70471C67.4163 4.04312 66.9006 3.74907 66.3848 3.52854L65.9428 3.38152C65.2797 3.08748 64.6165 2.71992 64.6165 1.83779C64.6165 0.882154 65.5007 0.294067 66.3848 0.294067C67.0479 0.294067 67.6374 0.661621 67.9321 1.24971L67.4163 1.47024Z" fill="#84898E"/>
<path d="M72.3528 6.39546H71.616V0.955664H70.1425V0.294067H73.8264V0.955664H72.3528V6.39546Z" fill="#84898E"/>
<path d="M76.7736 4.85171L76.1105 6.39544H75.3L78.2472 0L81.1944 6.39544H80.3839L79.5734 4.85171H76.7736ZM78.1735 1.69075L77.0683 4.19011H79.2787L78.1735 1.69075Z" fill="#84898E"/>
<path d="M83.6257 0L88.1938 4.7782V0.294043H88.9306V6.61597L84.3625 1.83777V6.39544H83.6257V0Z" fill="#84898E"/>
<path d="M92.9094 5.73386H94.7513V6.39546H92.0989V0.294067H92.8357V5.73386H92.9094Z" fill="#84898E"/>
<path d="M97.4037 0.294067H100.719V0.955664H98.2142V2.64641H100.646V3.30801H98.2142V5.58684H100.719V6.24844H97.4037V0.294067Z" fill="#84898E"/>
<path d="M103.077 0.294067H103.961L105.435 2.86694L106.908 0.294067H107.792L105.803 3.74907V6.39546H105.066V3.74907L103.077 0.294067Z" fill="#84898E"/>
<path d="M119.213 3.30796V3.52849C119.213 5.21924 118.034 6.46892 116.339 6.46892C114.645 6.46892 113.245 4.99871 113.245 3.30796C113.245 1.5437 114.645 0.0734863 116.413 0.0734863C117.371 0.0734863 118.329 0.514551 118.918 1.24966L118.402 1.76423C117.887 1.24966 117.15 0.882105 116.413 0.882105C115.013 0.882105 113.982 1.98477 113.982 3.38147C113.982 4.63115 115.013 5.88084 116.339 5.88084C117.297 5.88084 118.329 5.07222 118.329 4.04307H116.781V3.30796H119.213Z" fill="#84898E"/>
<path d="M122.013 6.02786C122.013 6.3219 121.792 6.46892 121.57 6.46892C121.276 6.46892 121.128 6.24839 121.128 6.02786C121.128 5.80732 121.349 5.58679 121.57 5.58679C121.792 5.58679 122.013 5.80732 122.013 6.02786Z" fill="#84898E"/>
<path d="M130.191 6.39546H129.454V0.955664H127.981V0.294067H131.665V0.955664H130.191V6.39546Z" fill="#84898E"/>
<path d="M134.612 4.85171L133.949 6.39544H133.138L136.085 0L139.033 6.39544H138.222L137.559 4.85171H134.612ZM136.012 1.69075L134.906 4.19011H137.117L136.012 1.69075Z" fill="#84898E"/>
<path d="M142.495 6.39546H141.759V0.955664H140.285V0.294067H143.969V0.955664H142.495V6.39546Z" fill="#84898E"/>
<path d="M146.695 0.294067H150.011V0.955664H147.506V2.64641H149.937V3.30801H147.506V5.58684H150.011V6.24844H146.695V0.294067Z" fill="#84898E"/>
</g>
<defs>
<clipPath id="clip0">
<rect width="152" height="58" fill="white"/>
</clipPath>
</defs>
</svg>
