<?xml version="1.0" encoding="utf-8"?>
<!-- Generator: Adobe Illustrator 25.2.1, SVG Export Plug-In . SVG Version: 6.00 Build 0)  -->
<svg version="1.1" id="Layer_1" xmlns="http://www.w3.org/2000/svg" xmlns:xlink="http://www.w3.org/1999/xlink" x="0px" y="0px"
	 viewBox="0 0 260 260" style="enable-background:new 0 0 260 260;" xml:space="preserve">
<style type="text/css">
	.st0{fill:#EC6C38;}
</style>
<g transform="translate(0.000000,260.000000) scale(0.100000,-0.100000)">
	<path class="st0" d="M13,2586c-4-6-7-1454-4-1547c1-9,12-20,27-23c31-8,209-93,284-136c190-109,503-390,516-464c1-6,16-55,32-108
		c16-54,27-100,24-102c-2-3-21,11-41,30C747,337,532,451,355,499c-120,33-151,38-267,47c-61,4-78,3-79-8c-4-72-3-88,6-89
		c6,0,46-2,90-4s94-6,110-9c17-4,46-9,65-12c91-14,208-54,325-112c79-39,232-141,261-174c21-24,16-21-59,28c-101,67-259,135-392,168
		c-99,24-124,27-262,31C3,369,3,369,8,296c4-45,4-45,35-39c43,9,272,9,322,0c22-4,56-10,75-12c46-7,181-51,239-78
		c63-29,208-115,216-127c4-6-25,5-63,25c-107,54-255,98-377,111c-121,14-307,4-390-20c-5-2-21-6-35-10C4,139,2,126,9,20
		C10,7,154,5,1248,7c680,1,1262,2,1292,2l55,1l-1,235c-1,130-3,237-5,239c-2,1-42,19-89,39c-90,38-232,82-297,92c-21,3-50,8-63,11
		c-65,14-268,11-355-6c-306-60-594-268-740-534c-20-36-39-66-41-66s5,22,16,50c142,360,460,621,860,707c126,26,389,24,528-6
		c57-12,122-28,143-35c37-13,39-13,40,8c4,83,3,109-1,116c-12,19-208,38-379,37c-318-1-573-74-787-226c-78-55-203-173-249-236
		c-17-22-32-42-35-45c-12-12-66-100-98-160c-48-93-59-98-19-10c152,334,365,553,682,705c98,47,303,120,367,130c32,5,56,10,108,21
		c55,11,102,15,250,21c85,3,157,9,160,13c4,6,5,120,1,152c-2,15-274-9-406-36c-47-10-154-38-200-54c-27-9-52-17-55-17
		c-18-3-119-46-195-84c-251-125-473-323-628-561c-54-84-128-223-142-268c-8-26-13-25-20,7c-9,40-13,56-34,136c-17,66-19,99-15,195
		c3,63,7,124,8,135c41,292,127,548,264,785c95,164,182,264,327,373c137,104,437,243,566,264c26,4,31,0,44-31c19-46,19-51-5-53
		c-43-3-179-43-265-78c-253-102-472-273-610-475c-107-157-216-412-261-612c-2-10-6-28-9-40c-10-40-33-181-40-238c-4-40-3-51,4-40
		c6,8,11,26,11,40c0,40,47,205,92,325c119,322,318,601,562,789c180,140,427,220,705,230l54,2l123-251c68-137,124-248,124-245
		c2,6,2,1097,1,1120c-1,13-151,15-1287,15C597,2595,16,2591,13,2586z"/>
</g>
</svg>
